<svg xmlns="http://www.w3.org/2000/svg" width="512" height="710" viewBox="0 0 512 710"><g transform="translate(512) rotate(90)" fill="#4dccb7"><path d="M 614.4890747070313 511.5000305175781 L 95.51100158691406 511.5000305175781 C 90.64641571044922 511.5000305175781 85.88466644287109 510.82958984375 81.35800170898438 509.5075073242188 C 77.03133392333984 508.2437744140625 72.9080810546875 506.3828430175781 69.10258483886719 503.9763488769531 C 61.77808380126953 499.3445129394531 55.74541854858398 492.7679443359375 51.6567497253418 484.9576721191406 C 47.56808471679688 477.1475219726563 45.60091781616211 468.4426879882813 45.96799850463867 459.7842712402344 C 46.15874862670898 455.2857666015625 46.97883224487305 450.8369445800781 48.40558242797852 446.5613403320313 C 49.89841842651367 442.0880126953125 52.06066513061523 437.7928466796875 54.83250045776367 433.7952575683594 L 314.3215026855469 59.54618453979492 C 316.7278442382813 56.07560348510742 319.5343322753906 52.94060134887695 322.6629943847656 50.22835159301758 C 325.6781616210938 47.61443710327148 329.0112609863281 45.37585067749023 332.5696716308594 43.57468414306641 C 336.0339050292969 41.82126998901367 339.718994140625 40.47793579101563 343.5226745605469 39.58210372924805 C 347.2726745605469 38.6988525390625 351.1341552734375 38.25101852416992 355 38.25101852416992 C 358.8657531738281 38.25101852416992 362.7272644042969 38.6988525390625 366.4772644042969 39.58210372924805 C 370.2809143066406 40.47793579101563 373.9660034179688 41.82126998901367 377.4302368164063 43.57468414306641 C 380.9886779785156 45.37585067749023 384.3217468261719 47.61443710327148 387.3369140625 50.22835159301758 C 390.465576171875 52.94060134887695 393.2720947265625 56.07560348510742 395.6784057617188 59.54618453979492 L 655.16748046875 433.7952575683594 C 657.9393310546875 437.7928466796875 660.1016845703125 442.0880126953125 661.5944213867188 446.5613403320313 C 663.0211791992188 450.8369445800781 663.84130859375 455.2857666015625 664.031982421875 459.7842712402344 C 664.3991088867188 468.4425964355469 662.4320068359375 477.1474304199219 658.3433227539063 484.9576721191406 C 654.254638671875 492.7679443359375 648.2219848632813 499.3444213867188 640.8975219726563 503.9763488769531 C 637.0919799804688 506.3828430175781 632.9686889648438 508.2437744140625 628.64208984375 509.5075073242188 C 624.1154174804688 510.82958984375 619.3536376953125 511.5000305175781 614.4890747070313 511.5000305175781 Z" stroke="none"/><path d="M 354.9999084472656 38.7509765625 C 351.1727600097656 38.7509765625 347.3497619628906 39.19430541992188 343.6372375488281 40.0687255859375 C 339.8720703125 40.95553588867188 336.2244262695313 42.28521728515625 332.7955017089844 44.02072143554688 C 329.2735900878906 45.80337524414063 325.9747619628906 48.01904296875 322.9905090332031 50.60614013671875 C 319.8934020996094 53.29104614257813 317.1149291992188 56.39480590820313 314.7323303222656 59.83114624023438 L 55.24334716796875 434.0801391601563 C 52.49859619140625 438.0387268066406 50.357666015625 442.2911987304688 48.87994384765625 446.7195434570313 C 47.4678955078125 450.9508056640625 46.65625 455.3535461425781 46.467529296875 459.8053894042969 C 46.10418701171875 468.3759765625 48.0517578125 476.9932861328125 52.09967041015625 484.7257080078125 C 56.1475830078125 492.4581298828125 62.1195068359375 498.9688110351563 69.3697509765625 503.5536499023438 C 73.1357421875 505.9352111816406 77.21630859375 507.7768859863281 81.4981689453125 509.0274658203125 C 85.979248046875 510.3363037109375 90.69390869140625 510.9999694824219 95.510986328125 510.9999694824219 L 614.4890747070313 510.9999694824219 C 619.30615234375 510.9999694824219 624.020751953125 510.3363037109375 628.5018920898438 509.0274658203125 C 632.78369140625 507.7768859863281 636.8641357421875 505.9352111816406 640.6302490234375 503.5537109375 C 647.8804931640625 498.9688110351563 653.8523559570313 492.4582214355469 657.9003295898438 484.7257995605469 C 661.9482421875 476.9933776855469 663.895751953125 468.3760375976563 663.5324096679688 459.8053894042969 C 663.34375 455.3535461425781 662.5321044921875 450.9508666992188 661.1200561523438 446.7195434570313 C 659.642333984375 442.2911987304688 657.5014038085938 438.0387268066406 654.7566528320313 434.0801391601563 L 395.267578125 59.83114624023438 C 392.885009765625 56.39480590820313 390.1065063476563 53.29104614257813 387.0094299316406 50.60614013671875 C 384.0251770019531 48.01904296875 380.726318359375 45.80337524414063 377.2044067382813 44.02072143554688 C 373.7755126953125 42.28521728515625 370.1278381347656 40.95553588867188 366.3626708984375 40.0687255859375 C 362.6500854492188 39.19430541992188 358.8271789550781 38.7509765625 354.9999084472656 38.7509765625 M 354.9999694824219 37.7509765625 C 370.5731811523438 37.7509765625 386.1464233398438 44.92108154296875 396.0893249511719 59.26129150390625 L 655.5784301757813 433.5103149414063 C 678.5691528320313 466.6687927246094 654.8383178710938 511.9999694824219 614.4890747070313 511.9999694824219 L 95.510986328125 511.9999694824219 C 55.16168212890625 511.9999694824219 31.43072509765625 466.6687927246094 54.42156982421875 433.5103149414063 L 313.9105834960938 59.26129150390625 C 323.8534851074219 44.92108154296875 339.4267272949219 37.7509765625 354.9999694824219 37.7509765625 Z" stroke="none" fill="#4dccb7"/></g></svg>