<?xml version="1.0" encoding="UTF-8" standalone="no"?>
<svg
   xmlns:dc="http://purl.org/dc/elements/1.1/"
   xmlns:cc="http://creativecommons.org/ns#"
   xmlns:rdf="http://www.w3.org/1999/02/22-rdf-syntax-ns#"
   xmlns:svg="http://www.w3.org/2000/svg"
   xmlns="http://www.w3.org/2000/svg"
   xmlns:xlink="http://www.w3.org/1999/xlink"
   xmlns:sodipodi="http://sodipodi.sourceforge.net/DTD/sodipodi-0.dtd"
   xmlns:inkscape="http://www.inkscape.org/namespaces/inkscape"
   id="Layer_1"
   data-name="Layer 1"
   viewBox="0 0 818.49738 337.36661"
   version="1.1"
   sodipodi:docname="fulllogo.svg"
   width="818.49738"
   height="337.36661"
   inkscape:version="0.92.4 (f8dce91, 2019-08-02)">
  <metadata
     id="metadata54">
    <rdf:RDF>
      <cc:Work
         rdf:about="">
        <dc:format>image/svg+xml</dc:format>
        <dc:type
           rdf:resource="http://purl.org/dc/dcmitype/StillImage" />
        <dc:title>finalpakka</dc:title>
      </cc:Work>
    </rdf:RDF>
  </metadata>
  <sodipodi:namedview
     pagecolor="#ffffff"
     bordercolor="#666666"
     borderopacity="1"
     objecttolerance="10"
     gridtolerance="10"
     guidetolerance="10"
     inkscape:pageopacity="0"
     inkscape:pageshadow="2"
     inkscape:window-width="1920"
     inkscape:window-height="1041"
     id="namedview52"
     showgrid="false"
     fit-margin-top="0"
     fit-margin-left="0"
     fit-margin-right="0"
     fit-margin-bottom="0"
     inkscape:zoom="1.4755556"
     inkscape:cx="334.69427"
     inkscape:cy="154.18276"
     inkscape:window-x="0"
     inkscape:window-y="0"
     inkscape:window-maximized="1"
     inkscape:current-layer="g49"
     showguides="true"
     inkscape:guide-bbox="true">
    <sodipodi:guide
       position="541.49095,133.50903"
       orientation="0,1"
       id="guide911"
       inkscape:locked="false" />
  </sodipodi:namedview>
  <defs
     id="defs23">
    <style
       id="style2">
      .cls-1 {
        fill: url(#linear-gradient);
      }
    </style>
    <linearGradient
       id="linear-gradient"
       x1="-0.73000002"
       y1="500.82001"
       x2="-0.89999998"
       y2="500.14001"
       gradientTransform="matrix(295.69,13.92,15.99,-339.64,-7606.07,170219.44)"
       gradientUnits="userSpaceOnUse">
      <stop
         offset="0"
         stop-color="lime"
         id="stop4" />
      <stop
         offset="0.07"
         stop-color="#06f321"
         id="stop6" />
      <stop
         offset="0.2"
         stop-color="#0fe053"
         id="stop8" />
      <stop
         offset="0.33"
         stop-color="#17d07f"
         id="stop10" />
      <stop
         offset="0.47"
         stop-color="#1ec2a3"
         id="stop12" />
      <stop
         offset="0.6"
         stop-color="#23b8bf"
         id="stop14" />
      <stop
         offset="0.73"
         stop-color="#26b1d2"
         id="stop16" />
      <stop
         offset="0.86"
         stop-color="#28acde"
         id="stop18" />
      <stop
         offset="1"
         stop-color="#29abe2"
         id="stop20" />
    </linearGradient>
    <linearGradient
       inkscape:collect="always"
       xlink:href="#linear-gradient"
       id="linearGradient894"
       gradientUnits="userSpaceOnUse"
       gradientTransform="matrix(295.69,13.92,15.99,-339.64,-7577.9252,170264.13)"
       x1="-0.73000002"
       y1="500.82001"
       x2="-0.89999998"
       y2="500.14001" />
  </defs>
  <title
     id="title25">finalpakka</title>
  <g
     id="g49"
     transform="translate(-42.170834,-76.37487)">
    <rect
       style="fill:#121110;fill-opacity:1;fill-rule:nonzero;stroke-width:0.81671584"
       id="rect877"
       width="818.49738"
       height="337.36661"
       x="42.170834"
       y="76.37487" />
    <g
       id="g45"
       transform="matrix(1.0821536,0,0,1.0821536,13.998218,21.068026)"
       style="fill:#faffff;fill-opacity:1">
      <path
         d="m 349.58,182.2 h -20 v 57.18 H 313.79 V 182.2 h -19.87 v -12.84 h 55.66 z"
         id="path27"
         inkscape:connector-curvature="0"
         style="fill:#faffff;fill-opacity:1" />
      <path
         d="m 400.6,189.38 -20.31,54 q -7.32,19.49 -22.07,19.48 a 28.21,28.21 0 0 1 -9.23,-1.27 v -12.3 a 13,13 0 0 0 6.69,1.81 8.36,8.36 0 0 0 8.3,-5.62 l 2.64,-6.2 -20.31,-49.9 h 17.09 l 9.32,30.42 a 38.67,38.67 0 0 1 1.37,6.69 h 0.2 a 46.09,46.09 0 0 1 1.61,-6.59 l 9.42,-30.52 z"
         id="path29"
         inkscape:connector-curvature="0"
         style="fill:#faffff;fill-opacity:1" />
      <path
         d="m 422.43,233.57 h -0.19 v 28.81 h -15.43 v -73 h 15.43 v 7.52 h 0.19 a 18.13,18.13 0 0 1 16.07,-8.74 q 9.71,0 15,6.66 5.29,6.66 5.3,18.14 0,12.49 -6.18,20.07 a 20.12,20.12 0 0 1 -16.43,7.57 q -9.02,0 -13.76,-7.03 z M 422,213.06 v 4 a 12.7,12.7 0 0 0 2.74,8.45 8.89,8.89 0 0 0 7.17,3.27 9.46,9.46 0 0 0 8.18,-4.08 Q 443,220.64 443,213.16 443,200 432.73,200 a 9.66,9.66 0 0 0 -7.74,3.59 q -2.99,3.56 -2.99,9.47 z"
         id="path31"
         inkscape:connector-curvature="0"
         style="fill:#faffff;fill-opacity:1" />
      <path
         d="m 513.74,218.77 h -32.62 q 0.78,10.89 13.72,10.89 a 26.72,26.72 0 0 0 14.5,-3.91 v 11.14 q -6.93,3.71 -18,3.71 -12.12,0 -18.8,-6.72 -6.68,-6.72 -6.69,-18.72 0,-12.45 7.23,-19.73 a 24.05,24.05 0 0 1 17.77,-7.27 q 10.94,0 16.92,6.49 5.98,6.49 6,17.63 z m -14.31,-9.47 q 0,-10.74 -8.69,-10.74 a 8.3,8.3 0 0 0 -6.42,3.07 14,14 0 0 0 -3.3,7.67 z"
         id="path33"
         inkscape:connector-curvature="0"
         style="fill:#faffff;fill-opacity:1" />
      <path
         d="m 564.52,239.38 h -14.6 v -7.18 h -0.19 a 16.31,16.31 0 0 1 -14.9,8.4 q -7.27,0 -11.45,-4.13 -4.18,-4.13 -4.17,-11 0,-14.55 17.23,-16.8 l 13.58,-1.8 q 0,-8.21 -8.89,-8.21 a 30.31,30.31 0 0 0 -17,5.33 v -11.63 a 37.88,37.88 0 0 1 8.81,-2.93 46.13,46.13 0 0 1 10.18,-1.27 q 21.39,0 21.39,21.33 z M 550,219.06 v -3.36 l -9.08,1.17 q -7.53,1 -7.52,6.78 a 5.64,5.64 0 0 0 1.83,4.33 7,7 0 0 0 5,1.68 9.13,9.13 0 0 0 7.08,-3 10.82,10.82 0 0 0 2.69,-7.6 z"
         id="path35"
         inkscape:connector-curvature="0"
         style="fill:#faffff;fill-opacity:1" />
      <path
         d="m 609.34,203.29 a 13.35,13.35 0 0 0 -6.49,-1.51 9.36,9.36 0 0 0 -7.86,3.69 q -2.84,3.67 -2.83,10 v 23.88 h -15.43 v -50 h 15.43 v 9.27 h 0.19 Q 596,188.5 605.54,188.5 a 9.94,9.94 0 0 1 3.8,0.58 z"
         id="path37"
         inkscape:connector-curvature="0"
         style="fill:#faffff;fill-opacity:1" />
      <path
         d="m 661.05,218.77 h -32.61 q 0.78,10.89 13.72,10.89 a 26.74,26.74 0 0 0 14.5,-3.91 v 11.14 q -6.93,3.71 -18,3.71 -12.1,0 -18.8,-6.72 -6.7,-6.72 -6.69,-18.72 0,-12.45 7.23,-19.73 a 24.07,24.07 0 0 1 17.77,-7.27 q 10.94,0 16.92,6.49 5.98,6.49 6,17.63 z m -14.3,-9.47 q 0,-10.74 -8.69,-10.74 a 8.31,8.31 0 0 0 -6.43,3.07 14,14 0 0 0 -3.29,7.67 z"
         id="path39"
         inkscape:connector-curvature="0"
         style="fill:#faffff;fill-opacity:1" />
      <path
         d="m 718.52,239.38 h -15.38 v -27.79 q 0,-11.61 -8.3,-11.62 a 8.24,8.24 0 0 0 -6.59,3.08 11.74,11.74 0 0 0 -2.59,7.81 v 28.52 h -15.43 v -50 h 15.43 v 7.91 h 0.2 q 5.52,-9.14 16.06,-9.13 16.61,0 16.6,20.6 z"
         id="path41"
         inkscape:connector-curvature="0"
         style="fill:#faffff;fill-opacity:1" />
      <path
         d="m 772.33,239.38 h -14.6 v -7.18 h -0.19 a 16.3,16.3 0 0 1 -14.89,8.4 q -7.29,0 -11.45,-4.13 -4.16,-4.13 -4.18,-11 0,-14.55 17.24,-16.8 l 13.57,-1.8 q 0,-8.21 -8.89,-8.21 A 30.34,30.34 0 0 0 732,204 v -11.64 a 37.82,37.82 0 0 1 8.82,-2.93 46.06,46.06 0 0 1 10.18,-1.27 q 21.38,0 21.38,21.33 z m -14.5,-20.32 v -3.36 l -9.08,1.17 q -7.51,1 -7.52,6.78 a 5.64,5.64 0 0 0 1.83,4.33 7,7 0 0 0 5,1.68 9.16,9.16 0 0 0 7.08,-3 10.85,10.85 0 0 0 2.69,-7.6 z"
         id="path43"
         inkscape:connector-curvature="0"
         style="fill:#faffff;fill-opacity:1" />
    </g>
    <path
       inkscape:connector-curvature="0"
       style="fill:url(#linearGradient894)"
       class="cls-1"
       d="m 104.42481,112.14685 206.72,134.60999 c 6.41,4.18 7.75,12.78 3,19.21001 v 0 c -11,14.9 -32,19.12999 -46.87,9.45999 l -50.39,-32.80999 c -5.8,-3.77001 -14,-2.12 -18.29,3.69999 l -0.12,0.17 -89.76,120.09 c -6.86,9.17001 -21.419996,5.24 -21.189996,-5.73 l 0.5,-25.66 4.46,-216.58 a 7.88,7.88 0 0 1 7.5,-7.6 7.42,7.42 0 0 1 4.439996,1.14001 z"
       id="path47" />
    <text
       xml:space="preserve"
       style="font-style:normal;font-weight:normal;font-size:40px;line-height:1.25;font-family:Roboto;letter-spacing:0px;word-spacing:0px;fill:#000000;fill-opacity:1;stroke:none;-inkscape-font-specification:Roboto;font-stretch:normal;font-variant:normal;"
       x="421.6889"
       y="387.98846"
       id="text935"><tspan
         sodipodi:role="line"
         id="tspan933"
         x="421.6889"
         y="423.37909" /></text>
    <text
       xml:space="preserve"
       style="font-style:normal;font-weight:normal;font-size:21.59719276px;line-height:1.25;font-family:sans-serif;letter-spacing:0px;word-spacing:0px;fill:#dee3db;fill-opacity:1;stroke:none;stroke-width:0.53992981"
       x="413.48135"
       y="365.19641"
       id="text939"><tspan
         sodipodi:role="line"
         id="tspan937"
         x="413.48135"
         y="365.19641"
         style="fill:#ffffff;fill-opacity:1;stroke-width:0.53992981">Type • Practice • Race • Earn</tspan></text>
  </g>
</svg>
