<svg xmlns="http://www.w3.org/2000/svg" xmlns:xlink="http://www.w3.org/1999/xlink" width="1213" height="656" viewBox="0 0 1213 656">
  <defs>
    <filter id="Rectangle_1" x="0" y="0" width="1213" height="656" filterUnits="userSpaceOnUse">
      <feOffset dx="2" dy="3" input="SourceAlpha"/>
      <feGaussianBlur stdDeviation="3" result="blur"/>
      <feFlood flood-opacity="0.161"/>
      <feComposite operator="in" in2="blur"/>
      <feComposite in="SourceGraphic"/>
    </filter>
  </defs>
  <g id="Group_5" data-name="Group 5" transform="translate(-335 -249)">
    <g transform="matrix(1, 0, 0, 1, 335, 249)" filter="url(#Rectangle_1)">
      <rect id="Rectangle_1-2" data-name="Rectangle 1" width="1195" height="638" rx="38" transform="translate(7 6)" fill="#242222"/>
    </g>
    <g id="Rectangle_2" data-name="Rectangle 2" transform="translate(397 540)" fill="#262626" stroke="#c5abab" stroke-width="1">
      <rect width="1037" height="181" rx="55" stroke="none"/>
      <rect x="0.5" y="0.5" width="1036" height="180" rx="54.5" fill="none"/>
    </g>
    <g id="Rectangle_3" data-name="Rectangle 3" transform="translate(397 768)" fill="#fff" stroke="#707070" stroke-width="1">
      <rect width="1037" height="64" rx="32" stroke="none"/>
      <rect x="0.5" y="0.5" width="1036" height="63" rx="31.5" fill="none"/>
    </g>
    <ellipse id="Ellipse_2" data-name="Ellipse 2" cx="60.5" cy="57.5" rx="60.5" ry="57.5" transform="translate(1029 361)" fill="rgba(138,132,132,0.48)"/>
    <ellipse id="Ellipse_3" data-name="Ellipse 3" cx="60.5" cy="57.5" rx="60.5" ry="57.5" transform="translate(1197 361)" fill="#565252"/>
    <ellipse id="Ellipse_4" data-name="Ellipse 4" cx="60.5" cy="57.5" rx="60.5" ry="57.5" transform="translate(441 361)" fill="#555151"/>
    <ellipse id="Ellipse_5" data-name="Ellipse 5" cx="60.5" cy="57.5" rx="60.5" ry="57.5" transform="translate(618 361)" fill="#555151"/>
    <g id="Group_2" data-name="Group 2" transform="translate(13 11)">
      <ellipse id="Ellipse_1" data-name="Ellipse 1" cx="92.5" cy="96.5" rx="92.5" ry="96.5" transform="translate(797 300)" fill="#555151"/>
      <ellipse id="Ellipse_6" data-name="Ellipse 6" cx="70.5" cy="73.5" rx="70.5" ry="73.5" transform="translate(819 323)" fill="#262626"/>
    </g>
    <ellipse id="Ellipse_7" data-name="Ellipse 7" cx="42" cy="40" rx="42" ry="40" transform="translate(1048 379)" fill="#262626"/>
    <path id="Path_1" data-name="Path 1" d="M42,0C65.2,0,84,17.909,84,40S65.2,80,42,80,0,62.091,0,40,18.8,0,42,0Z" transform="translate(458 379)" fill="#262626"/>
    <path id="Path_2" data-name="Path 2" d="M42,0C65.2,0,84,17.909,84,40S65.2,80,42,80,0,62.091,0,40,18.8,0,42,0Z" transform="translate(637 379)" fill="#262626"/>
    <ellipse id="Ellipse_9" data-name="Ellipse 9" cx="42" cy="40" rx="42" ry="40" transform="translate(1216 379)" fill="#262626"/>
    <text id="The_more_accurate_you_type_the_better_you_become_at_typing." data-name="The more accurate you type, the better you become at 
typing." transform="translate(454 614)" fill="rgba(229,224,224,0.7)" font-size="37" font-family="SegoeUI-Semibold, Segoe UI" font-weight="600"><tspan x="0" y="0">The more accurate you type, the better you become at </tspan><tspan x="0" y="49">typing.</tspan></text>
    <rect id="Rectangle_6" data-name="Rectangle 6" width="400" height="57" transform="translate(438 574)" fill="rgba(38,38,38,0.85)"/>
    <rect id="Rectangle_7" data-name="Rectangle 7" width="88" height="57" rx="23" transform="translate(842 574)" fill="#4ea55c" opacity="0.58"/>
    <text id="you_ty" data-name="you ty" transform="translate(455 815)" fill="#262626" font-size="37" font-family="SegoeUI-Semibold, Segoe UI" font-weight="600"><tspan x="0" y="0">you ty</tspan></text>
    <line id="Line_1" data-name="Line 1" y2="47" transform="translate(572.5 777.5)" fill="none" stroke="#100e0e" stroke-width="3"/>
    <text id="_66" data-name="66" transform="translate(481 435)" fill="#f3e7e7" font-size="37" font-family="SegoeUI-Semibold, Segoe UI" font-weight="600"><tspan x="0" y="0">66</tspan></text>
    <text id="_37" data-name="37" transform="translate(658 435)" fill="#f3e7e7" font-size="37" font-family="SegoeUI-Semibold, Segoe UI" font-weight="600"><tspan x="0" y="0">37</tspan></text>
    <text id="_72" data-name="72" transform="translate(1070 435)" fill="#f3e7e7" font-size="37" font-family="SegoeUI-Semibold, Segoe UI" font-weight="600"><tspan x="0" y="0">72</tspan></text>
    <text id="_49" data-name="49" transform="translate(1237 429)" fill="#f3e7e7" font-size="37" font-family="SegoeUI-Semibold, Segoe UI" font-weight="600"><tspan x="0" y="0">49</tspan></text>
    <g id="Subtraction_5" data-name="Subtraction 5" transform="translate(2756.325 308.133)" fill="#60e474">
      <path d="M -1784.239501953125 164.8690795898438 L -1857.367309570313 125.9860610961914 L -1859.527709960938 2.184221744537354 L -1859.506225585938 2.183830976486206 C -1858.949951171875 2.174101829528809 -1858.385864257813 2.169164419174194 -1857.830078125 2.169164419174194 C -1845.468994140625 2.169164419174194 -1833.421508789063 4.570956230163574 -1822.022338867188 9.307830810546875 C -1816.294189453125 11.68891429901123 -1810.756591796875 14.66316413879395 -1805.563354492188 18.14789390563965 C -1800.420654296875 21.59937286376953 -1795.571166992188 25.58224678039551 -1791.1494140625 29.98587226867676 C -1786.728271484375 34.38924789428711 -1782.69921875 39.24918365478516 -1779.174438476563 44.43072509765625 C -1775.61474609375 49.66228866577148 -1772.538452148438 55.26755905151367 -1770.031005859375 61.09085083007813 C -1764.812255859375 73.20885467529297 -1762.048095703125 86.12916564941406 -1761.815185546875 99.49291229248047 C -1761.581665039063 112.856559753418 -1763.893310546875 125.8660583496094 -1768.685913085938 138.1600952148438 C -1770.990600585938 144.0704345703125 -1773.869262695313 149.7796630859375 -1777.24169921875 155.1291656494141 C -1779.366333007813 158.499267578125 -1781.71923828125 161.7740631103516 -1784.239501953125 164.8690795898438 Z" stroke="none"/>
      <path d="M -1784.368408203125 164.2342376708984 C -1781.958618164063 161.249267578125 -1779.70556640625 158.099853515625 -1777.664672851563 154.8625183105469 C -1774.30908203125 149.5398712158203 -1771.444946289063 143.8592224121094 -1769.15185546875 137.9785003662109 C -1764.3828125 125.7453689575195 -1762.082641601563 112.7999114990234 -1762.315185546875 99.50162506103516 C -1762.546875 86.20326995849609 -1765.29736328125 73.3465576171875 -1770.490234375 61.28858184814453 C -1772.985107421875 55.49445724487305 -1776.046020507813 49.91730880737305 -1779.587768554688 44.71195602416992 C -1783.094848632813 39.55657958984375 -1787.103393554688 34.72118377685547 -1791.502319335938 30.34014320373535 C -1795.901245117188 25.95910263061523 -1800.725830078125 21.99670600891113 -1805.841918945313 18.56308174133301 C -1811.007934570313 15.09662246704102 -1816.516479492188 12.13803958892822 -1822.214233398438 9.769538879394531 C -1833.55224609375 5.058081150054932 -1845.53515625 2.669164419174194 -1857.830078125 2.669164419174194 C -1858.224243164063 2.669164419174194 -1858.62255859375 2.671663284301758 -1859.01904296875 2.676599502563477 L -1856.872436523438 125.6828765869141 L -1784.368408203125 164.2342376708984 M -1784.112060546875 165.5031280517578 L -1857.862060546875 126.2892684936523 L -1860.036376953125 1.694705963134766 L -1860.00927734375 1.692914366722107 L -1859.763671875 1.688414335250854 L -1859.515258789063 1.683914303779602 C -1858.95556640625 1.67412269115448 -1858.388549804688 1.669164299964905 -1857.830078125 1.669164299964905 C -1845.40283203125 1.669164299964905 -1833.290771484375 4.08385181427002 -1821.830444335938 8.846101760864258 C -1816.071655273438 11.23995590209961 -1810.505004882813 14.22985172271729 -1805.284790039063 17.73270606994629 C -1800.115478515625 21.20203971862793 -1795.240966796875 25.20539283752441 -1790.796630859375 29.63160133361816 C -1786.352783203125 34.05747604370117 -1782.303466796875 38.94199752807617 -1778.760986328125 44.14949798583984 C -1775.183349609375 49.40745544433594 -1772.091674804688 55.04085159301758 -1769.57177734375 60.89310073852539 C -1764.3271484375 73.07126617431641 -1761.54931640625 86.05518341064453 -1761.315307617188 99.48420715332031 C -1761.08056640625 112.9132232666016 -1763.403686523438 125.9867858886719 -1768.220092773438 138.3417053222656 C -1770.536254882813 144.2814636230469 -1773.42919921875 150.0192718505859 -1776.818725585938 155.3958129882813 C -1779.026611328125 158.8980255126953 -1781.480224609375 162.2984008789063 -1784.111572265625 165.5025024414063 L -1784.112060546875 165.5031280517578 Z" stroke="none" fill="#242222"/>
    </g>
    <g id="Subtraction_2" data-name="Subtraction 2" transform="matrix(-1, 0.017, -0.017, -1, 967.924, 512.502)" fill="#262626" style="mix-blend-mode: darken;isolation: isolate">
      <path d="M 69.49970245361328 177.4996795654297 C 60.21351623535156 177.483154296875 51.20552062988281 175.5938568115234 42.72305297851563 171.8835754394531 C 38.62763214111328 170.0922393798828 34.67755889892578 167.8749847412109 30.9825611114502 165.29345703125 C 27.32205200195313 162.7360076904297 23.87986946105957 159.7989807128906 20.75159645080566 156.5639495849609 C 17.6229419708252 153.3284301757813 14.7824878692627 149.7682342529297 12.30916023254395 145.9822082519531 C 9.811923980712891 142.1596984863281 7.667069435119629 138.0731964111328 5.934123992919922 133.8362274169922 C 2.328305721282959 125.0200881958008 0.499996691942215 115.6545944213867 0.499996691942215 105.999885559082 C 0.499996691942215 96.34501647949219 2.328305721282959 86.97939300537109 5.934123992919922 78.16317749023438 C 7.666996479034424 73.92630767822266 9.811851501464844 69.83974456787109 12.30916023254395 66.01701354980469 C 14.78254222869873 62.23090744018555 17.62299728393555 58.67068862915039 20.75159645080566 55.43526840209961 C 23.87979698181152 52.20023345947266 27.32197761535645 49.26317977905273 30.9825611114502 46.7056884765625 C 34.67763137817383 44.12410736083984 38.62770462036133 41.90686798095703 42.7230339050293 40.11554336547852 C 51.20546340942383 36.40526580810547 60.21346282958984 34.51594924926758 69.49970245361328 34.49941635131836 L 69.49970245361328 177.4996795654297 Z" stroke="none"/>
      <path d="M 68.99971008300781 176.9969482421875 L 68.99971008300781 35.00214004516602 C 59.95972061157227 35.08446884155273 51.18979263305664 36.95786285400391 42.92341232299805 40.57362365722656 C 38.85821151733398 42.35178375244141 34.93707275390625 44.55280303955078 31.26891136169434 47.11554336547852 C 27.63459205627441 49.65472412109375 24.21697044372559 52.57082366943359 21.11103057861328 55.78284072875977 C 18.00443077087402 58.9954833984375 15.18389129638672 62.53076171875 12.7277307510376 66.29048156738281 C 10.2477912902832 70.08663940429688 8.117791175842285 74.14485931396484 6.396911144256592 78.35246276855469 C 2.815771341323853 87.10829925537109 0.999991238117218 96.41024017333984 0.999991238117218 105.9999008178711 C 0.999991238117218 115.5893630981445 2.815771341323853 124.8911819458008 6.396911144256592 133.6469421386719 C 8.117871284484863 137.8546295166016 10.24787139892578 141.9127960205078 12.7277307510376 145.7087554931641 C 15.1837911605835 149.4683380126953 18.00435066223145 153.0036010742188 21.11101150512695 156.2163696289063 C 24.2171516418457 159.4284820556641 27.6347713470459 162.3445587158203 31.26891136169434 164.8835754394531 C 34.93699264526367 167.4462890625 38.85813140869141 169.6473083496094 42.92341232299805 171.4255065917969 C 51.18977355957031 175.0412445068359 59.9597053527832 176.9146118164063 68.99971008300781 176.9969482421875 M 69.62306976318359 177.9997863769531 C 60.22402954101563 177.9997863769531 51.10615158081055 176.0961456298828 42.52267074584961 172.3416748046875 C 38.39717102050781 170.5371551513672 34.41817092895508 168.3036956787109 30.69619178771973 165.7033233642578 C 27.00955200195313 163.1276397705078 23.54277038574219 160.1696472167969 20.39215087890625 156.9114990234375 C 17.24159049987793 153.6533660888672 14.3812313079834 150.0682373046875 11.89055156707764 146.2556762695313 C 9.375990867614746 142.4066162109375 7.216251373291016 138.2917633056641 5.471331119537354 134.0254974365234 C 1.840811252593994 125.1489791870117 -8.77319325809367e-06 115.7198257446289 -8.77319325809367e-06 105.9999008178711 C -8.77319325809367e-06 96.27982330322266 1.840811252593994 86.85050201416016 5.471331119537354 77.97389984130859 C 7.216251373291016 73.70756530761719 9.376010894775391 69.59268188476563 11.89055156707764 65.74356079101563 C 14.3812313079834 61.93100357055664 17.2415714263916 58.34584045410156 20.39215087890625 55.08770370483398 C 23.54271125793457 51.82954406738281 27.00951194763184 48.87154388427734 30.69619178771973 46.29580307006836 C 34.41823196411133 43.69540405273438 38.39721298217773 41.46194076538086 42.52267074584961 39.65744400024414 C 51.10610961914063 35.90298080444336 60.22399139404297 33.99930191040039 69.62306976318359 33.99930191040039 C 69.74980926513672 33.99930191040039 69.87313079833984 33.99966049194336 69.99971008300781 34.00036239624023 L 69.99971008300781 177.9987487792969 L 69.98011016845703 177.9994659423828 L 69.80239105224609 177.9996490478516 L 69.62306976318359 177.9997863769531 Z" stroke="none" fill="#242222"/>
    </g>
    <text id="_90" data-name="90" transform="translate(907 424)" fill="rgba(255,255,255,0.86)" font-size="68" font-family="SegoeUI-Bold, Segoe UI" font-weight="700"><tspan x="-39.113" y="0">90</tspan></text>
    <text id="wpm" transform="translate(878 453)" fill="#f3e7e7" font-size="25" font-family="SegoeUI-Semibold, Segoe UI" font-weight="600"><tspan x="0" y="0">wpm</tspan></text>
    <text id="Neetigya" transform="translate(500 339)" fill="rgba(255,255,255,0.86)" font-size="24" font-family="SegoeUI-Bold, Segoe UI" font-weight="700"><tspan x="-50.889" y="0">Neetigya</tspan></text>
    <text id="Avi" transform="translate(1258 343)" fill="rgba(255,255,255,0.86)" font-size="29" font-family="SegoeUI-Bold, Segoe UI" font-weight="700"><tspan x="-21.856" y="0">Avi</tspan></text>
    <text id="John" transform="translate(679 341)" fill="rgba(255,255,255,0.86)" font-size="25" font-family="SegoeUI-Bold, Segoe UI" font-weight="700"><tspan x="-28.296" y="0">John</tspan></text>
    <text id="Shawn" transform="translate(1093 339)" fill="rgba(255,255,255,0.86)" font-size="24" font-family="SegoeUI-Bold, Segoe UI" font-weight="700"><tspan x="-37.236" y="0">Shawn</tspan></text>
  </g>
</svg>
