<svg xmlns="http://www.w3.org/2000/svg" width="758" height="758" viewBox="0 0 758 758"><g transform="translate(-552 -186)"><g transform="translate(552 186)" fill="#35c0dc" stroke="#32b559" stroke-width="1"><circle cx="379" cy="379" r="379" stroke="none"/><circle cx="379" cy="379" r="378.5" fill="none"/></g><g transform="translate(-25.271 -41.806)"><g transform="translate(577.271 1381.806)" fill="#474a49" opacity="0.34"><path d="M 506.1420288085938 -418.3861999511719 L 214.1021881103516 -605.9237060546875 L 460.5245361328125 -1011.198486328125 L 755.83984375 -821.5570678710938 C 756.9413452148438 -809.4432983398438 757.4998168945313 -797.1064453125 757.4998168945313 -784.885498046875 C 757.4998168945313 -743.5039672851563 751.2105712890625 -702.768310546875 738.806884765625 -663.8102416992188 C 726.8091430664063 -626.1270751953125 709.2731323242188 -590.624267578125 686.68603515625 -558.2880249023438 C 675.5982666015625 -542.4144287109375 663.2368774414063 -527.2664794921875 649.9452514648438 -513.2650756835938 C 636.6604614257813 -499.2707824707031 622.2364501953125 -486.2007141113281 607.073974609375 -474.4180297851563 C 576.2951049804688 -450.4996948242188 542.3382568359375 -431.6488647460938 506.1420288085938 -418.3861999511719 Z" stroke="none"/><path d="M 506.2032165527344 -418.941162109375 C 542.263916015625 -432.1815490722656 576.094970703125 -450.9773559570313 606.7672119140625 -474.8127746582031 C 621.9097900390625 -486.5801696777344 636.3150634765625 -499.6331787109375 649.5826416015625 -513.6093139648438 C 662.8571166992188 -527.5927124023438 675.2025756835938 -542.7210693359375 686.2761840820313 -558.5743408203125 C 708.8343505859375 -590.8693237304688 726.3479614257813 -626.3267822265625 738.3305053710938 -663.9619140625 C 750.718505859375 -702.870849609375 756.9998168945313 -743.5554809570313 756.9998168945313 -784.885498046875 C 756.9998168945313 -797.0097045898438 756.4495239257813 -809.2476806640625 755.3639526367188 -821.2683715820313 L 460.6855163574219 -1010.500854492188 L 214.7829132080078 -606.080810546875 L 506.2032165527344 -418.941162109375 M 506.080810546875 -417.8313293457031 L 213.4215087890625 -605.7666015625 L 460.3634948730469 -1011.896118164063 L 756.3156127929688 -821.845703125 C 757.4288940429688 -809.685302734375 757.9998168945313 -797.3452758789063 757.9998168945313 -784.885498046875 C 757.9998168945313 -615.5843505859375 652.8958740234375 -471.5145568847656 506.080810546875 -417.8313293457031 Z" stroke="none" fill="#474a49"/></g><g transform="translate(751.271 523.806)" fill="#7d3deb" stroke="#7d3deb" stroke-width="1"><rect width="410" height="316" rx="158" stroke="none"/><rect x="0.5" y="0.5" width="409" height="315" rx="157.5" fill="none"/></g><g transform="translate(859.271 324.806)" fill="#dca87b" stroke="#dca87b" stroke-width="1"><ellipse cx="97" cy="99.5" rx="97" ry="99.5" stroke="none"/><ellipse cx="97" cy="99.5" rx="96.5" ry="99" fill="none"/></g></g><g transform="translate(771 1453)" fill="#292624"><path d="M 231.9283905029297 -1136.499877929688 L 88.07194519042969 -1136.499877929688 C 92.30951690673828 -1141.356079101563 97.02503967285156 -1145.7958984375 102.1010208129883 -1149.707397460938 C 107.5036010742188 -1153.870239257813 113.3418350219727 -1157.455200195313 119.4535140991211 -1160.362548828125 C 125.6769866943359 -1163.323120117188 132.2260589599609 -1165.600219726563 138.9188079833984 -1167.13037109375 C 145.7964324951172 -1168.702758789063 152.8892364501953 -1169.5 160.0001983642578 -1169.5 C 167.1111450195313 -1169.5 174.2039794921875 -1168.702758789063 181.0816345214844 -1167.13037109375 C 187.7743835449219 -1165.600219726563 194.3234405517578 -1163.323120117188 200.546875 -1160.362548828125 C 206.6585693359375 -1157.455200195313 212.4967803955078 -1153.870239257813 217.8993835449219 -1149.707397460938 C 222.975341796875 -1145.7958984375 227.6906433105469 -1141.356323242188 231.9283905029297 -1136.499877929688 Z" stroke="none"/><path d="M 230.8202056884766 -1136.999877929688 C 226.7951202392578 -1141.5087890625 222.3541717529297 -1145.643310546875 217.5942077636719 -1149.311279296875 C 212.2196197509766 -1153.45263671875 206.4118194580078 -1157.018920898438 200.3321075439453 -1159.911010742188 C 194.1416778564453 -1162.85595703125 187.6273956298828 -1165.120849609375 180.9701995849609 -1166.642944335938 C 174.1289825439453 -1168.20703125 167.0736389160156 -1169 160.0001983642578 -1169 C 152.9267272949219 -1169 145.8713989257813 -1168.20703125 139.0302429199219 -1166.642944335938 C 132.3730163574219 -1165.120849609375 125.8587265014648 -1162.85595703125 119.6683044433594 -1159.911010742188 C 113.588623046875 -1157.018920898438 107.7808227539063 -1153.45263671875 102.4062042236328 -1149.311279296875 C 97.64630126953125 -1145.643432617188 93.20504760742188 -1141.508544921875 89.18011474609375 -1136.999877929688 L 230.8202056884766 -1136.999877929688 M 233.0203094482422 -1135.999877929688 L 233.020263671875 -1135.999877929688 L 233.0181274414063 -1135.999877929688 L 233.020263671875 -1135.999877929688 L 233.0203094482422 -1135.999877929688 Z M 233.0203094482422 -1135.999877929688 L 86.98007965087891 -1135.999877929688 C 91.42366027832031 -1141.207641601563 96.40864562988281 -1145.9521484375 101.7958221435547 -1150.103393554688 C 107.2263259887695 -1154.287841796875 113.0949401855469 -1157.891479492188 119.2387237548828 -1160.814086914063 C 125.4952621459961 -1163.790405273438 132.0791015625 -1166.079467773438 138.8073577880859 -1167.617797851563 C 145.7214050292969 -1169.198486328125 152.8516845703125 -1170 160.0001983642578 -1170 C 167.1486968994141 -1170 174.2789764404297 -1169.198486328125 181.1930694580078 -1167.617797851563 C 187.9213409423828 -1166.079467773438 194.5051574707031 -1163.790405273438 200.7616882324219 -1160.814086914063 C 206.9054412841797 -1157.891479492188 212.7740783691406 -1154.287841796875 218.2045593261719 -1150.103393554688 C 223.5931243896484 -1145.951049804688 228.5773773193359 -1141.20654296875 233.0188903808594 -1136.00146484375 L 233.020263671875 -1135.999877929688 Z" stroke="none" fill="#292624"/></g></g></svg>