<svg xmlns="http://www.w3.org/2000/svg" width="758" height="758" viewBox="0 0 758 758"><g transform="translate(-552 -186)"><g transform="translate(552 186)" fill="#4dccb7" stroke="#4dccb7" stroke-width="1"><circle cx="379" cy="379" r="379" stroke="none"/><circle cx="379" cy="379" r="378.5" fill="none"/></g><g transform="translate(552 3696)" fill="#474a49" opacity="0.35"><path d="M 605.9522094726563 -2828.061767578125 L 247.1964874267578 -2965.775146484375 L 407.7455444335938 -3384.019287109375 L 735.6082763671875 -3258.16455078125 C 742.7338256835938 -3238.183837890625 748.1979370117188 -3217.4462890625 751.8492431640625 -3196.524169921875 C 755.5986938476563 -3175.039794921875 757.4998779296875 -3152.994384765625 757.4998779296875 -3131.000244140625 C 757.4998779296875 -3115.699951171875 756.5774536132813 -3100.292236328125 754.7581176757813 -3085.204833984375 C 752.9694213867188 -3070.37109375 750.2733764648438 -3055.510009765625 746.7446899414063 -3041.034423828125 C 739.8109741210938 -3012.59033203125 729.5250244140625 -2984.934814453125 716.17236328125 -2958.836181640625 C 703.0560302734375 -2933.199462890625 686.9566650390625 -2909.010986328125 668.3214111328125 -2886.943359375 C 649.839111328125 -2865.056396484375 628.8548583984375 -2845.24609375 605.9522094726563 -2828.061767578125 Z" stroke="none"/><path d="M 605.8731689453125 -2828.627685546875 C 628.6607055664063 -2845.75146484375 649.5401000976563 -2865.477294921875 667.939453125 -2887.265869140625 C 686.550048828125 -2909.3046875 702.6282348632813 -2933.4609375 715.727294921875 -2959.06396484375 C 729.0621337890625 -2985.1279296875 739.3344116210938 -3012.74658203125 746.2589111328125 -3041.15283203125 C 749.7828369140625 -3055.609130859375 752.4754028320313 -3070.450439453125 754.26171875 -3085.2646484375 C 756.0786743164063 -3100.332275390625 756.9998779296875 -3115.719970703125 756.9998779296875 -3131.000244140625 C 756.9998779296875 -3152.965576171875 755.1011962890625 -3174.982177734375 751.356689453125 -3196.43798828125 C 747.723388671875 -3217.257080078125 742.2928466796875 -3237.89306640625 735.2144165039063 -3257.7802734375 L 408.0331420898438 -3383.373291015625 L 247.8424377441406 -2966.062744140625 L 605.8731689453125 -2828.627685546875 M 606.031005859375 -2827.495849609375 L 246.5505065917969 -2965.487548828125 L 407.4579467773438 -3384.665283203125 L 736.001953125 -3258.549072265625 C 750.244384765625 -3218.6904296875 757.9998779296875 -3175.753173828125 757.9998779296875 -3131.000244140625 C 757.9998779296875 -3006.833984375 698.30322265625 -2896.623291015625 606.031005859375 -2827.495849609375 Z" stroke="none" fill="#474a49"/></g><g transform="translate(-70 7)"><g transform="translate(748 615)" fill="#5b484c" stroke="#3c484a" stroke-width="1"><rect width="462" height="125" rx="16" stroke="none"/><rect x="0.5" y="0.5" width="461" height="124" rx="15.5" fill="none"/></g><g transform="translate(894 496)" fill="#5b484c" stroke="#3c484a" stroke-width="1"><rect width="179" height="134" rx="10" stroke="none"/><rect x="0.5" y="0.5" width="178" height="133" rx="9.5" fill="none"/></g><rect width="421" height="127" rx="11" transform="translate(748 613)" fill="#ec4949"/><rect width="139" height="125" rx="11" transform="translate(889 496)" fill="#ec4949"/><text transform="translate(790 699)" fill="#fff" stroke="#fff" stroke-width="1" font-size="90" font-family="MS-UIGothic, MS UI Gothic"><tspan x="0" y="0">3</tspan></text><text transform="translate(1060 706)" fill="#fff" stroke="#fff" stroke-width="1" font-size="108" font-family="MS-UIGothic, MS UI Gothic"><tspan x="0" y="0">2</tspan></text><text transform="translate(930 600)" fill="#fff" stroke="#fff" stroke-width="1" font-size="97" font-family="MS-UIGothic, MS UI Gothic"><tspan x="0" y="0">1</tspan></text></g><g transform="translate(-428.715 257.197)"><g transform="translate(1217.715 70.803)" fill="#edf33a" stroke="#edf33a" stroke-width="1"><ellipse cx="47" cy="42.5" rx="47" ry="42.5" stroke="none"/><ellipse cx="47" cy="42.5" rx="46.5" ry="42" fill="none"/></g><g transform="translate(1352.715 70.803)" fill="#edf33a" stroke="#edf33a" stroke-width="1"><ellipse cx="46.5" cy="42.5" rx="46.5" ry="42.5" stroke="none"/><ellipse cx="46.5" cy="42.5" rx="46" ry="42" fill="none"/></g><ellipse cx="33.5" cy="31" rx="33.5" ry="31" transform="translate(1231.715 82.803)" fill="#4dccb7"/><ellipse cx="34" cy="31" rx="34" ry="31" transform="translate(1364.715 82.803)" fill="#4a9e90"/><g transform="translate(1271.715 50.803)" fill="#edf33a" stroke="#edf33a" stroke-width="1"><rect width="133" height="120" rx="7" stroke="none"/><rect x="0.5" y="0.5" width="132" height="119" rx="6.5" fill="none"/></g><g transform="translate(1249.715 -0.197)" fill="#edf33a"><path d="M 155.9873962402344 59.49999237060547 L 23.01259994506836 59.49999237060547 C 21.49858093261719 59.49999237060547 20.10685920715332 59.03221130371094 18.9879207611084 58.14719009399414 C 17.95097923278809 57.32705307006836 17.19231986999512 56.20127105712891 16.7939395904541 54.8915901184082 C 16.39555931091309 53.58191299438477 16.39883995056152 52.22437286376953 16.80345916748047 50.96573257446289 C 17.24006080627441 49.60755157470703 18.13555908203125 48.44403076171875 19.39314079284668 47.6009521484375 L 85.88053894042969 3.028411388397217 C 86.95491790771484 2.308151483535767 88.20652008056641 1.927451372146606 89.5 1.927451372146606 C 90.79347991943359 1.927451372146606 92.04505920410156 2.308151483535767 93.11946105957031 3.028431415557861 L 159.6068572998047 47.6009521484375 C 160.8644409179688 48.44403076171875 161.7599334716797 49.60755157470703 162.196533203125 50.96573257446289 C 162.6011657714844 52.22437286376953 162.6044464111328 53.58191299438477 162.2060546875 54.8915901184082 C 161.8076782226563 56.20127105712891 161.0490264892578 57.32705307006836 160.0120849609375 58.14719009399414 C 158.8931427001953 59.03221130371094 157.5014190673828 59.49999237060547 155.9873962402344 59.49999237060547 Z" stroke="none"/><path d="M 89.5 2.427452087402344 C 88.30597686767578 2.427452087402344 87.15068054199219 2.77886962890625 86.15895843505859 3.443710327148438 L 19.67155456542969 48.01627349853516 C 18.50843811035156 48.79601287841797 17.68125915527344 49.86883163452148 17.27946472167969 51.11875152587891 C 16.9114990234375 52.26338958740234 16.90896606445313 53.55161285400391 17.27229309082031 54.74608993530273 C 17.63563537597656 55.94057083129883 18.35508728027344 57.00917053222656 19.298095703125 57.75503158569336 C 20.32783508300781 58.56949234008789 21.6123046875 58.99999237060547 23.01260375976563 58.99999237060547 L 155.9873962402344 58.99999237060547 C 157.3876953125 58.99999237060547 158.6721649169922 58.56949234008789 159.701904296875 57.75503158569336 C 160.6449279785156 57.00917053222656 161.3643646240234 55.94057083129883 161.7276916503906 54.74608993530273 C 162.0910339355469 53.55161285400391 162.0885009765625 52.26338958740234 161.7205200195313 51.11875152587891 C 161.3187255859375 49.86883163452148 160.4915466308594 48.79601287841797 159.3284149169922 48.01627349853516 L 92.84104156494141 3.443710327148438 C 91.84931945800781 2.77886962890625 90.69400024414063 2.427452087402344 89.5 2.427452087402344 M 89.49999237060547 1.427448272705078 C 90.85939788818359 1.427448272705078 92.21880340576172 1.822662353515625 93.39788055419922 2.613090515136719 L 159.88525390625 47.18565368652344 C 165.6302947998047 51.03707122802734 162.9039459228516 59.99999237060547 155.9873962402344 59.99999237060547 L 23.01260375976563 59.99999237060547 C 16.09605407714844 59.99999237060547 13.36970520019531 51.03707122802734 19.11471557617188 47.18565368652344 L 85.60211944580078 2.613090515136719 C 86.78118896484375 1.822662353515625 88.14058685302734 1.427448272705078 89.49999237060547 1.427448272705078 Z" stroke="none" fill="#edf33a"/></g><g transform="translate(1328.715 166.803)" fill="#edf33a" stroke="#edf33a" stroke-width="1"><rect width="17" height="49" stroke="none"/><rect x="0.5" y="0.5" width="16" height="48" fill="none"/></g><rect width="230" height="35" rx="17.5" transform="translate(1223.715 210.803)" fill="#b19f57"/></g></g></svg>