<svg xmlns="http://www.w3.org/2000/svg" width="758" height="758" viewBox="0 0 758 758"><g transform="translate(-552 -186)"><g transform="translate(552 186)" fill="#be9a63" stroke="#be9a63" stroke-width="1"><circle cx="379" cy="379" r="379" stroke="none"/><circle cx="379" cy="379" r="378.5" fill="none"/></g><g transform="translate(548 1421)" fill="#474a49" opacity="0.34"><path d="M 506.1348876953125 -502.3724365234375 L 214.1529541015625 -663.3604736328125 L 460.5133666992188 -1011.242553710938 L 755.8458862304688 -848.4066162109375 C 756.9434204101563 -838.026611328125 757.4998168945313 -827.45654296875 757.4998168945313 -816.9845581054688 C 757.4998168945313 -781.4696044921875 751.213134765625 -746.508544921875 738.8145141601563 -713.0726928710938 C 726.820556640625 -680.7281494140625 709.2893676757813 -650.254150390625 686.7080688476563 -622.497314453125 C 675.6220703125 -608.8703002929688 663.2623901367188 -595.8662719726563 649.9724731445313 -583.8461303710938 C 636.6884765625 -571.8313598632813 622.26513671875 -560.6099243164063 607.103271484375 -550.4935913085938 C 576.3153686523438 -529.9512939453125 542.3445434570313 -513.76123046875 506.1348876953125 -502.3724365234375 Z" stroke="none"/><path d="M 506.1889953613281 -502.9136047363281 C 542.2788696289063 -514.2849731445313 576.1336669921875 -530.43115234375 606.8257446289063 -550.9094848632813 C 621.9673461914063 -561.0123291015625 636.3712158203125 -572.218505859375 649.6370849609375 -584.2169189453125 C 662.908203125 -596.2200317382813 675.2501831054688 -609.20556640625 686.3201904296875 -622.8128662109375 C 708.866943359375 -650.527099609375 726.3707885742188 -680.9534301757813 738.345703125 -713.24658203125 C 750.7236328125 -746.6265869140625 756.9998168945313 -781.5291137695313 756.9998168945313 -816.9845581054688 C 756.9998168945313 -827.3515625 756.4535522460938 -837.815673828125 755.3760375976563 -848.0946655273438 L 460.6631774902344 -1010.588928222656 L 214.8843994140625 -663.5281982421875 L 506.1889953613281 -502.9136047363281 M 506.080810546875 -501.831298828125 L 213.4215240478516 -663.1927490234375 L 460.363525390625 -1011.896118164063 L 756.3156127929688 -848.7185668945313 C 757.428955078125 -838.2776489257813 757.9998168945313 -827.6824340820313 757.9998168945313 -816.9845581054688 C 757.9998168945313 -671.6222534179688 652.8958740234375 -547.9237670898438 506.080810546875 -501.831298828125 Z" stroke="none" fill="#474a49"/></g><g transform="translate(-641.364 109.353)"><g transform="translate(1274.697 302.162)"><g transform="translate(-0.333 0.485)" fill="#3ac463" stroke="#707070" stroke-width="1"><rect width="466" height="210" stroke="none"/><rect x="0.5" y="0.5" width="465" height="209" fill="none"/></g><g transform="translate(11 18)"><rect width="445" height="169" rx="39" transform="translate(-0.333 0.485)" fill="#32854b"/><rect width="405" height="138" rx="39" transform="translate(21.667 16.485)" fill="#3ac463"/><g transform="translate(325.667 73.485)" fill="#32854b" stroke="#32854b" stroke-width="1"><rect width="80" height="62" rx="31" stroke="none"/><rect x="0.5" y="0.5" width="79" height="61" rx="30.5" fill="none"/></g><g transform="translate(346.667 34.485)" fill="#32854b" stroke="#32854b" stroke-width="1"><ellipse cx="18.5" cy="19.5" rx="18.5" ry="19.5" stroke="none"/><ellipse cx="18.5" cy="19.5" rx="18" ry="19" fill="none"/></g></g><g transform="translate(48.667 52.485)" fill="#e2e65e" stroke="#e2e65e" stroke-width="1"><rect width="114" height="101" rx="50.5" stroke="none"/><rect x="0.5" y="0.5" width="113" height="100" rx="50" fill="none"/></g><g transform="translate(178.667 54.485)" fill="#32854b" stroke="#32854b" stroke-width="1"><rect width="104" height="16" rx="8" stroke="none"/><rect x="0.5" y="0.5" width="103" height="15" rx="7.5" fill="none"/></g><g transform="translate(178.667 78.485)" fill="#32854b" stroke="#32854b" stroke-width="1"><rect width="104" height="15" rx="7.5" stroke="none"/><rect x="0.5" y="0.5" width="103" height="14" rx="7" fill="none"/></g><g transform="translate(178.667 107.485)" fill="#32854b" stroke="#32854b" stroke-width="1"><rect width="104" height="15" rx="7.5" stroke="none"/><rect x="0.5" y="0.5" width="103" height="14" rx="7" fill="none"/></g><g transform="translate(58.667 52.485)" fill="#3ac463" stroke="#707070" stroke-width="1"><rect width="473" height="210" stroke="none"/><rect x="0.5" y="0.5" width="472" height="209" fill="none"/></g><g transform="translate(70 71.749)"><g transform="translate(0 0)"><g transform="translate(0 0)"><rect width="452" height="168" rx="39" transform="translate(-0.333 -0.264)" fill="#32854b"/></g><rect width="410" height="139" rx="39" transform="translate(22.667 14.736)" fill="#3ac463"/></g><g transform="translate(331.667 72.736)" fill="#32854b" stroke="#32854b" stroke-width="1"><rect width="80" height="61" rx="30.5" stroke="none"/><rect x="0.5" y="0.5" width="79" height="60" rx="30" fill="none"/></g><g transform="translate(352.667 33.736)" fill="#32854b" stroke="#32854b" stroke-width="1"><ellipse cx="18.5" cy="19.5" rx="18.5" ry="19.5" stroke="none"/><ellipse cx="18.5" cy="19.5" rx="18" ry="19" fill="none"/></g></g><g transform="translate(109.667 104.485)" fill="#e2e65e" stroke="#e2e65e" stroke-width="1"><rect width="114" height="100" rx="50" stroke="none"/><rect x="0.5" y="0.5" width="113" height="99" rx="49.5" fill="none"/></g><g transform="translate(238.667 109.485)" fill="#32854b" stroke="#32854b" stroke-width="1"><rect width="105" height="15" rx="7.5" stroke="none"/><rect x="0.5" y="0.5" width="104" height="14" rx="7" fill="none"/></g><g transform="translate(238.667 139.485)" fill="#32854b" stroke="#32854b" stroke-width="1"><rect width="105" height="15" rx="7.5" stroke="none"/><rect x="0.5" y="0.5" width="104" height="14" rx="7" fill="none"/></g><g transform="translate(238.667 167.485)" fill="#32854b" stroke="#32854b" stroke-width="1"><rect width="105" height="15" rx="7.5" stroke="none"/><rect x="0.5" y="0.5" width="104" height="14" rx="7" fill="none"/></g><g transform="translate(111.667 134.485)" fill="#3ac463" stroke="#707070" stroke-width="1"><rect width="466" height="210" stroke="none"/><rect x="0.5" y="0.5" width="465" height="209" fill="none"/></g><g transform="translate(121.667 152.485)"><g transform="translate(0 0)"><rect width="446" height="169" rx="39" fill="#32854b"/><rect width="404" height="138" rx="39" transform="translate(23 16)" fill="#3ac463"/></g><g transform="translate(327 73)" fill="#32854b" stroke="#32854b" stroke-width="1"><rect width="79" height="62" rx="31" stroke="none"/><rect x="0.5" y="0.5" width="78" height="61" rx="30.5" fill="none"/></g><g transform="translate(348 34)" fill="#32854b" stroke="#32854b" stroke-width="1"><ellipse cx="18" cy="19.5" rx="18" ry="19.5" stroke="none"/><ellipse cx="18" cy="19.5" rx="17.5" ry="19" fill="none"/></g></g><g transform="translate(155.667 186.485)" fill="#e2e65e" stroke="#e2e65e" stroke-width="1"><rect width="114" height="101" rx="50.5" stroke="none"/><rect x="0.5" y="0.5" width="113" height="100" rx="50" fill="none"/></g></g><g transform="translate(1559.364 505.647)" fill="#32854b" stroke="#32854b" stroke-width="1"><rect width="105" height="15" rx="7.5" stroke="none"/><rect x="0.5" y="0.5" width="104" height="14" rx="7" fill="none"/></g><g transform="translate(1559.364 535.647)" fill="#32854b" stroke="#32854b" stroke-width="1"><rect width="105" height="15" rx="7.5" stroke="none"/><rect x="0.5" y="0.5" width="104" height="14" rx="7" fill="none"/></g><g transform="translate(1559.364 564.647)" fill="#32854b" stroke="#32854b" stroke-width="1"><rect width="105" height="15" rx="7.5" stroke="none"/><rect x="0.5" y="0.5" width="104" height="14" rx="7" fill="none"/></g></g></g></svg>