<svg xmlns="http://www.w3.org/2000/svg" xmlns:xlink="http://www.w3.org/1999/xlink" width="758" height="758" viewBox="0 0 758 758"><defs><filter id="a" x="95" y="217" width="535" height="374" filterUnits="userSpaceOnUse"><feOffset dy="3" input="SourceAlpha"/><feGaussianBlur stdDeviation="3" result="b"/><feFlood flood-opacity="0.161"/><feComposite operator="in" in2="b"/><feComposite in="SourceGraphic"/></filter></defs><g transform="translate(-610 -191)"><g transform="translate(610 191)" fill="rgba(42,178,83,0.96)" stroke="#32b559" stroke-width="1"><circle cx="379" cy="379" r="379" stroke="none"/><circle cx="379" cy="379" r="378.5" fill="none"/></g><g transform="translate(2601 191)" fill="#474a49" opacity="0.34"><path d="M -1611 757.4998168945313 C -1625.213012695313 757.4998168945313 -1639.536499023438 756.7032470703125 -1653.572509765625 755.1321411132813 C -1667.32421875 753.5928955078125 -1681.119873046875 751.2745361328125 -1694.58056640625 748.2408447265625 L -1853.864013671875 529.0064697265625 L -1440.456176757813 228.6477661132813 L -1249.49462890625 491.483642578125 C -1255.395263671875 510.4673767089844 -1262.87158203125 529.1343994140625 -1271.716918945313 546.9674072265625 C -1280.486206054688 564.6467895507813 -1290.73974609375 581.7879638671875 -1302.192749023438 597.9149169921875 C -1313.567260742188 613.9312133789063 -1326.297607421875 629.1905517578125 -1340.029907226563 643.2689208984375 C -1353.755126953125 657.3399658203125 -1368.686889648438 670.4420166015625 -1384.410278320313 682.2109985351563 C -1400.226196289063 694.0493774414063 -1417.083984375 704.7188110351563 -1434.515258789063 713.923095703125 C -1452.156005859375 723.2378540039063 -1470.66455078125 731.1995239257813 -1489.52685546875 737.5870971679688 C -1528.545654296875 750.8002319335938 -1569.4150390625 757.4998168945313 -1611 757.4998168945313 Z" stroke="none"/><path d="M -1611 756.9998168945313 C -1569.4697265625 756.9998168945313 -1528.654174804688 750.30908203125 -1489.687255859375 737.1134643554688 C -1470.85009765625 730.7344360351563 -1452.366088867188 722.7833251953125 -1434.748779296875 713.4808959960938 C -1417.340576171875 704.288818359375 -1400.505004882813 693.6334838867188 -1384.709838867188 681.8106689453125 C -1369.007202148438 670.05712890625 -1354.095092773438 656.9723510742188 -1340.387817382813 642.9197387695313 C -1326.673583984375 628.85986328125 -1313.9599609375 613.62060546875 -1302.600341796875 597.6253662109375 C -1291.162475585938 581.519775390625 -1280.922485351563 564.401123046875 -1272.164794921875 546.7451782226563 C -1263.368041992188 529.0101318359375 -1255.927856445313 510.4512634277344 -1250.046630859375 491.5744934082031 L -1440.56689453125 229.3460693359375 L -1853.165649414063 529.1170654296875 L -1694.286865234375 747.79443359375 C -1680.902099609375 750.8038940429688 -1667.188110351563 753.1050415039063 -1653.516845703125 754.63525390625 C -1639.499267578125 756.2042846679688 -1625.194580078125 756.9998168945313 -1611 756.9998168945313 M -1611 757.9998168945313 C -1639.82177734375 757.9998168945313 -1667.89501953125 754.781982421875 -1694.874389648438 748.6870727539063 L -1854.5625 528.8958129882813 L -1440.345581054688 227.9492950439453 L -1248.94287109375 491.3924560546875 C -1296.831298828125 645.8328247070313 -1440.816040039063 757.9998168945313 -1611 757.9998168945313 Z" stroke="none" fill="#474a49"/></g><g transform="translate(280 241.688)"><g transform="matrix(1, 0, 0, 1, 330, -50.69)" filter="url(#a)"><path d="M336.571,206.274H180.429C173.519,291.141,136.014,356,90.784,356,40.645,356,0,276.307,0,178S40.645,0,90.784,0H426.216C476.354,0,517,79.693,517,178s-40.646,178-90.784,178C380.986,356,343.481,291.141,336.571,206.274Z" transform="translate(104 223)" fill="#474a49"/></g><ellipse cx="62" cy="58" rx="62" ry="58" transform="translate(508 241.312)" fill="#313737"/><g transform="translate(785 242.312)" fill="#313737" stroke="#313737" stroke-width="1"><ellipse cx="20.5" cy="20" rx="20.5" ry="20" stroke="none"/><ellipse cx="20.5" cy="20" rx="20" ry="19.5" fill="none"/></g><g transform="translate(831 265.312)" fill="#313737" stroke="#313737" stroke-width="1"><ellipse cx="20.5" cy="19.5" rx="20.5" ry="19.5" stroke="none"/><ellipse cx="20.5" cy="19.5" rx="20" ry="19" fill="none"/></g><g transform="translate(793 298.312)" fill="#313737" stroke="#313737" stroke-width="1"><ellipse cx="20" cy="19.5" rx="20" ry="19.5" stroke="none"/><ellipse cx="20" cy="19.5" rx="19.5" ry="19" fill="none"/></g><g transform="translate(498 234.312)" fill="#a3a8a8" stroke="#707070" stroke-width="1"><ellipse cx="62" cy="58" rx="62" ry="58" stroke="none"/><ellipse cx="62" cy="58" rx="61.5" ry="57.5" fill="none"/></g><g transform="translate(780 239.312)" fill="#cb3838" stroke="#cb3838" stroke-width="1"><ellipse cx="20.5" cy="20" rx="20.5" ry="20" stroke="none"/><ellipse cx="20.5" cy="20" rx="20" ry="19.5" fill="none"/></g><g transform="translate(786 292.312)" fill="#39a8b5" stroke="#39a8b5" stroke-width="1"><ellipse cx="20" cy="19.5" rx="20" ry="19.5" stroke="none"/><ellipse cx="20" cy="19.5" rx="19.5" ry="19" fill="none"/></g><g transform="translate(826 259.312)" fill="#2ebc67" stroke="#2ebc67" stroke-width="1"><ellipse cx="20.5" cy="19.5" rx="20.5" ry="19.5" stroke="none"/><ellipse cx="20.5" cy="19.5" rx="20" ry="19" fill="none"/></g><rect width="69" height="20" rx="10" transform="translate(523 152.312)" opacity="0.82"/><path d="M2567.757,152.552c1.35-48.237-59.781-63.844-59.781-63.844l10.405-20.81s89.744,58.755,71.535,84.655" transform="translate(-2022.5)" fill="#474a49"/><ellipse cx="20" cy="20.5" rx="20" ry="20.5" transform="translate(520 263.312)" fill="#fff"/></g></g></svg>