<svg xmlns="http://www.w3.org/2000/svg" width="584" height="639.169" viewBox="0 0 584 639.169"><g transform="translate(-751.271 -324.806)"><g transform="translate(577.271 1381.806)" fill="#474a49" opacity="0.34"><path d="M 506.1420288085938 -418.3861999511719 L 214.1021881103516 -605.9237060546875 L 460.5245361328125 -1011.198486328125 L 755.83984375 -821.5570678710938 C 756.9413452148438 -809.4432983398438 757.4998168945313 -797.1064453125 757.4998168945313 -784.885498046875 C 757.4998168945313 -743.5039672851563 751.2105712890625 -702.768310546875 738.806884765625 -663.8102416992188 C 726.8091430664063 -626.1270751953125 709.2731323242188 -590.624267578125 686.68603515625 -558.2880249023438 C 675.5982666015625 -542.4144287109375 663.2368774414063 -527.2664794921875 649.9452514648438 -513.2650756835938 C 636.6604614257813 -499.2707824707031 622.2364501953125 -486.2007141113281 607.073974609375 -474.4180297851563 C 576.2951049804688 -450.4996948242188 542.3382568359375 -431.6488647460938 506.1420288085938 -418.3861999511719 Z" stroke="none"/><path d="M 506.2032165527344 -418.941162109375 C 542.263916015625 -432.1815490722656 576.094970703125 -450.9773559570313 606.7672119140625 -474.8127746582031 C 621.9097900390625 -486.5801696777344 636.3150634765625 -499.6331787109375 649.5826416015625 -513.6093139648438 C 662.8571166992188 -527.5927124023438 675.2025756835938 -542.7210693359375 686.2761840820313 -558.5743408203125 C 708.8343505859375 -590.8693237304688 726.3479614257813 -626.3267822265625 738.3305053710938 -663.9619140625 C 750.718505859375 -702.870849609375 756.9998168945313 -743.5554809570313 756.9998168945313 -784.885498046875 C 756.9998168945313 -797.0097045898438 756.4495239257813 -809.2476806640625 755.3639526367188 -821.2683715820313 L 460.6855163574219 -1010.500854492188 L 214.7829132080078 -606.080810546875 L 506.2032165527344 -418.941162109375 M 506.080810546875 -417.8313293457031 L 213.4215087890625 -605.7666015625 L 460.3634948730469 -1011.896118164063 L 756.3156127929688 -821.845703125 C 757.4288940429688 -809.685302734375 757.9998168945313 -797.3452758789063 757.9998168945313 -784.885498046875 C 757.9998168945313 -615.5843505859375 652.8958740234375 -471.5145568847656 506.080810546875 -417.8313293457031 Z" stroke="none" fill="#474a49"/></g><g transform="translate(751.271 523.806)" fill="#7d3deb" stroke="#7d3deb" stroke-width="1"><rect width="410" height="316" rx="158" stroke="none"/><rect x="0.5" y="0.5" width="409" height="315" rx="157.5" fill="none"/></g><g transform="translate(859.271 324.806)" fill="#dca87b" stroke="#dca87b" stroke-width="1"><ellipse cx="97" cy="99.5" rx="97" ry="99.5" stroke="none"/><ellipse cx="97" cy="99.5" rx="96.5" ry="99" fill="none"/></g></g></svg>