<svg xmlns="http://www.w3.org/2000/svg" xmlns:xlink="http://www.w3.org/1999/xlink" width="535" height="472.415" viewBox="0 0 535 472.415"><defs><filter id="a" x="0" y="98.415" width="535" height="374" filterUnits="userSpaceOnUse"><feOffset dy="3" input="SourceAlpha"/><feGaussianBlur stdDeviation="3" result="b"/><feFlood flood-opacity="0.161"/><feComposite operator="in" in2="b"/><feComposite in="SourceGraphic"/></filter></defs><g transform="translate(-425 -67.898)"><g transform="matrix(1, 0, 0, 1, 425, 67.9)" filter="url(#a)"><path d="M336.571,206.274H180.429C173.519,291.141,136.014,356,90.784,356,40.645,356,0,276.307,0,178S40.645,0,90.784,0H426.216C476.354,0,517,79.693,517,178s-40.646,178-90.784,178C380.986,356,343.481,291.141,336.571,206.274Z" transform="translate(9 104.41)" fill="#474a49"/></g><ellipse cx="62" cy="58" rx="62" ry="58" transform="translate(508 241.312)" fill="#313737"/><g transform="translate(785 242.312)" fill="#313737" stroke="#313737" stroke-width="1"><ellipse cx="20.5" cy="20" rx="20.5" ry="20" stroke="none"/><ellipse cx="20.5" cy="20" rx="20" ry="19.5" fill="none"/></g><g transform="translate(831 265.312)" fill="#313737" stroke="#313737" stroke-width="1"><ellipse cx="20.5" cy="19.5" rx="20.5" ry="19.5" stroke="none"/><ellipse cx="20.5" cy="19.5" rx="20" ry="19" fill="none"/></g><g transform="translate(793 298.312)" fill="#313737" stroke="#313737" stroke-width="1"><ellipse cx="20" cy="19.5" rx="20" ry="19.5" stroke="none"/><ellipse cx="20" cy="19.5" rx="19.5" ry="19" fill="none"/></g><g transform="translate(498 234.312)" fill="#a3a8a8" stroke="#707070" stroke-width="1"><ellipse cx="62" cy="58" rx="62" ry="58" stroke="none"/><ellipse cx="62" cy="58" rx="61.5" ry="57.5" fill="none"/></g><g transform="translate(780 239.312)" fill="#cb3838" stroke="#cb3838" stroke-width="1"><ellipse cx="20.5" cy="20" rx="20.5" ry="20" stroke="none"/><ellipse cx="20.5" cy="20" rx="20" ry="19.5" fill="none"/></g><g transform="translate(786 292.312)" fill="#39a8b5" stroke="#39a8b5" stroke-width="1"><ellipse cx="20" cy="19.5" rx="20" ry="19.5" stroke="none"/><ellipse cx="20" cy="19.5" rx="19.5" ry="19" fill="none"/></g><g transform="translate(826 259.312)" fill="#2ebc67" stroke="#2ebc67" stroke-width="1"><ellipse cx="20.5" cy="19.5" rx="20.5" ry="19.5" stroke="none"/><ellipse cx="20.5" cy="19.5" rx="20" ry="19" fill="none"/></g><rect width="69" height="20" rx="10" transform="translate(523 152.312)" opacity="0.82"/><path d="M2567.757,152.552c1.35-48.237-59.781-63.844-59.781-63.844l10.405-20.81s89.744,58.755,71.535,84.655" transform="translate(-2022.5)" fill="#474a49"/><ellipse cx="20" cy="20.5" rx="20" ry="20.5" transform="translate(520 263.312)" fill="#fff"/></g></svg>