<?xml version="1.0" encoding="UTF-8" standalone="no"?>
<svg
   xmlns:dc="http://purl.org/dc/elements/1.1/"
   xmlns:cc="http://creativecommons.org/ns#"
   xmlns:rdf="http://www.w3.org/1999/02/22-rdf-syntax-ns#"
   xmlns:svg="http://www.w3.org/2000/svg"
   xmlns="http://www.w3.org/2000/svg"
   xmlns:sodipodi="http://sodipodi.sourceforge.net/DTD/sodipodi-0.dtd"
   xmlns:inkscape="http://www.inkscape.org/namespaces/inkscape"
   id="Layer_1"
   data-name="Layer 1"
   viewBox="0 0 318.29684 134.10114"
   version="1.1"
   sodipodi:docname="logo.svg"
   width="318.29684"
   height="134.10114"
   inkscape:version="0.92.4 (f8dce91, 2019-08-02)">
  <metadata
     id="metadata52">
    <rdf:RDF>
      <cc:Work
         rdf:about="">
        <dc:format>image/svg+xml</dc:format>
        <dc:type
           rdf:resource="http://purl.org/dc/dcmitype/StillImage" />
        <dc:title>sent</dc:title>
      </cc:Work>
    </rdf:RDF>
  </metadata>
  <sodipodi:namedview
     pagecolor="#ffffff"
     bordercolor="#666666"
     borderopacity="1"
     objecttolerance="10"
     gridtolerance="10"
     guidetolerance="10"
     inkscape:pageopacity="0"
     inkscape:pageshadow="2"
     inkscape:window-width="1920"
     inkscape:window-height="1041"
     id="namedview50"
     showgrid="false"
     fit-margin-top="0"
     fit-margin-left="0"
     fit-margin-right="0"
     fit-margin-bottom="0"
     inkscape:zoom="1.888"
     inkscape:cx="117.06727"
     inkscape:cy="72.82193"
     inkscape:window-x="0"
     inkscape:window-y="0"
     inkscape:window-maximized="1"
     inkscape:current-layer="Layer_1" />
  <defs
     id="defs23">
    <style
       id="style2">
      .cls-1 {
        fill: url(#linear-gradient);
      }

      .cls-2 {
        fill: #fff;
      }
    </style>
    <linearGradient
       id="linear-gradient"
       x1="171.00999"
       y1="304.62"
       x2="140.39"
       y2="438.63"
       gradientTransform="rotate(59.807978,30.823264,331.12497)"
       gradientUnits="userSpaceOnUse">
      <stop
         offset="0"
         stop-color="lime"
         id="stop4" />
      <stop
         offset="0.07"
         stop-color="#06f321"
         id="stop6" />
      <stop
         offset="0.2"
         stop-color="#0fe053"
         id="stop8" />
      <stop
         offset="0.33"
         stop-color="#17d07f"
         id="stop10" />
      <stop
         offset="0.47"
         stop-color="#1ec2a3"
         id="stop12" />
      <stop
         offset="0.6"
         stop-color="#23b8bf"
         id="stop14" />
      <stop
         offset="0.73"
         stop-color="#26b1d2"
         id="stop16" />
      <stop
         offset="0.86"
         stop-color="#28acde"
         id="stop18" />
      <stop
         offset="1"
         stop-color="#29abe2"
         id="stop20" />
    </linearGradient>
  </defs>
  <title
     id="title25">sent</title>
  <g
     id="g877"
     transform="matrix(0.86535251,0,0,0.86535251,0.8726298,-315.7137)">
    <path
       inkscape:connector-curvature="0"
       style="fill:url(#linear-gradient)"
       id="path27"
       d="m 70.615273,377.26804 73.621717,126.52627 a 8.26,8.26 0 0 1 -2.98614,11.21816 v 0 a 19.06,19.06 0 0 1 -26.06427,-6.8981 L 97.24132,477.27703 A 7.43,7.43 0 0 0 86.969205,474.66009 L 13.198561,517.15193 A 6.69,6.69 0 0 1 3.7611253,508.58806 L 10.041761,494.71984 63.018807,377.72346 a 4.26,4.26 0 0 1 7.596466,-0.45542 z"
       class="cls-1" />
    <g
       transform="translate(-29.213098,235.20289)"
       id="g37">
      <path
         style="fill:#ffffff"
         inkscape:connector-curvature="0"
         id="path29"
         d="m 192.71,229.06 -0.79,6.22 0.23,0.11 a 15.12,15.12 0 0 1 6,-5.88 21.32,21.32 0 0 1 9.35,-1.74 q 7.74,0 11.32,3.66 3.58,3.66 3.61,11.6 v 3.68 h -7.82 v -4.37 c 0,-2.84 -0.7,-4.87 -2.08,-6.09 -1.38,-1.22 -3.64,-1.83 -6.79,-1.83 a 16.57,16.57 0 0 0 -7.24,1.46 8.65,8.65 0 0 0 -4.25,4.09 13.43,13.43 0 0 0 -1.14,4.08 51.26,51.26 0 0 0 -0.33,6.5 l 0.07,32.2 h -7.82 l -0.11,-53.71 z"
         class="cls-2" />
      <path
         style="fill:#ffffff"
         inkscape:connector-curvature="0"
         id="path31"
         d="m 277.42,266.38 a 7.71,7.71 0 0 1 0.12,1.32 v 0.86 a 17.63,17.63 0 0 1 -1.19,7 10.22,10.22 0 0 1 -3.9,4.61 18.51,18.51 0 0 1 -7.12,2.55 67.5,67.5 0 0 1 -10.87,0.77 51,51 0 0 1 -11.91,-1.13 13.79,13.79 0 0 1 -7.36,-4.24 17.38,17.38 0 0 1 -3.7,-8.5 80.42,80.42 0 0 1 -1,-13.91 74.1,74.1 0 0 1 1,-13.63 17.69,17.69 0 0 1 3.72,-8.46 13.76,13.76 0 0 1 7.35,-4.27 51.11,51.11 0 0 1 12,-1.18 59.91,59.91 0 0 1 8.52,0.5 20.59,20.59 0 0 1 6,1.71 11.49,11.49 0 0 1 4,3.16 17,17 0 0 1 2.6,4.82 q 0.45,1.38 0.81,2.82 a 24.33,24.33 0 0 1 0.52,3.5 c 0.12,1.38 0.2,3.07 0.24,5.06 0.04,1.99 0.07,4.49 0.08,7.48 l -38.65,0.08 a 72.83,72.83 0 0 0 0.6,10.29 12.6,12.6 0 0 0 2.2,5.92 7.54,7.54 0 0 0 4.66,2.69 41.82,41.82 0 0 0 8.11,0.62 75.71,75.71 0 0 0 8,-0.36 10.54,10.54 0 0 0 4.54,-1.39 4.87,4.87 0 0 0 2,-3.11 26.43,26.43 0 0 0 0.44,-5.52 z M 269.34,251 c 0,-1.84 0,-3.36 -0.06,-4.55 -0.06,-1.19 -0.11,-2.16 -0.18,-2.93 a 13.63,13.63 0 0 0 -0.35,-2 c -0.16,-0.58 -0.35,-1.17 -0.58,-1.78 a 6.74,6.74 0 0 0 -4,-4.19 q -3,-1.2 -9.43,-1.19 a 42.33,42.33 0 0 0 -8.16,0.65 8.86,8.86 0 0 0 -4.83,2.48 9.78,9.78 0 0 0 -2.29,5.07 50.07,50.07 0 0 0 -0.55,8.51 z"
         class="cls-2" />
      <path
         style="fill:#ffffff"
         inkscape:connector-curvature="0"
         id="path33"
         d="m 297.13,228.85 -0.1,7.36 0.11,0.11 a 13.64,13.64 0 0 1 2.76,-4.2 12.26,12.26 0 0 1 4.49,-2.48 30.74,30.74 0 0 1 10.73,-1.64 q 13.38,0 17.55,6.86 a 12.22,12.22 0 0 1 1.45,4.42 62,62 0 0 1 0.42,8.23 l 0.07,35 h -7.82 l -0.07,-34.27 c 0,-1.45 0,-2.66 -0.06,-3.62 -0.06,-0.96 -0.11,-1.78 -0.18,-2.47 a 7.31,7.31 0 0 0 -0.41,-1.78 c -0.19,-0.5 -0.41,-1 -0.64,-1.56 a 6,6 0 0 0 -3.7,-3.21 24.81,24.81 0 0 0 -7.74,-0.9 q -9,0 -12.75,3.59 -3.75,3.59 -3.73,12 l 0.07,32.31 h -8.05 l -0.11,-53.71 z"
         class="cls-2" />
      <path
         style="fill:#ffffff"
         inkscape:connector-curvature="0"
         id="path35"
         d="m 348.1,243.92 a 31.28,31.28 0 0 1 1,-7.95 9,9 0 0 1 3.33,-4.88 15.36,15.36 0 0 1 6.49,-2.47 64.64,64.64 0 0 1 10.52,-0.73 52.26,52.26 0 0 1 10.81,0.9 15.57,15.57 0 0 1 6.85,3.09 11.52,11.52 0 0 1 3.63,5.86 34.46,34.46 0 0 1 1.06,9.2 l 0.07,35.42 h -7.82 l 0.57,-5.75 -0.12,-0.11 a 13.73,13.73 0 0 1 -2.81,3.22 12,12 0 0 1 -3.68,2 23.49,23.49 0 0 1 -5,1.11 57.64,57.64 0 0 1 -6.78,0.35 44.81,44.81 0 0 1 -9.49,-0.83 15.48,15.48 0 0 1 -6.27,-2.74 10.21,10.21 0 0 1 -3.46,-5 24.26,24.26 0 0 1 -1,-7.62 25.38,25.38 0 0 1 1.3,-8.48 10.57,10.57 0 0 1 3.61,-5.39 q 4.49,-3.23 15.64,-3.25 8.63,0 13.57,1.9 a 7.2,7.2 0 0 1 2.13,1.23 8.06,8.06 0 0 1 1.56,2.26 l 0.23,-0.12 v -6.4 a 43.58,43.58 0 0 0 -0.53,-7.5 8.1,8.1 0 0 0 -2.08,-4.46 8.33,8.33 0 0 0 -4.26,-2.11 36.35,36.35 0 0 0 -7.19,-0.56 47.58,47.58 0 0 0 -6.72,0.42 12.25,12.25 0 0 0 -4.31,1.33 5.29,5.29 0 0 0 -2.3,2.48 9.48,9.48 0 0 0 -0.68,3.85 v 1.73 z m 21,12.15 a 59.9,59.9 0 0 0 -7.68,0.42 11.44,11.44 0 0 0 -4.56,1.44 5.49,5.49 0 0 0 -2.24,2.88 15,15 0 0 0 -0.63,4.84 21.54,21.54 0 0 0 0.59,5.46 6.22,6.22 0 0 0 2.09,3.33 9.06,9.06 0 0 0 4.15,1.66 41.33,41.33 0 0 0 6.82,0.44 q 10.72,0 14.42,-3.13 c 1.54,-1.23 2.3,-3.49 2.3,-6.79 a 14.8,14.8 0 0 0 -0.77,-5.12 6.61,6.61 0 0 0 -2.49,-3.21 11.5,11.5 0 0 0 -4.67,-1.72 43.17,43.17 0 0 0 -7.31,-0.5 z"
         class="cls-2" />
    </g>
    <g
       transform="translate(-29.213098,235.20289)"
       id="g47">
      <path
         style="fill:#ffffff"
         inkscape:connector-curvature="0"
         id="path39"
         d="m 198.53,206.89 h -3.75 v -29.8 h -10.85 v -3.55 h 25.4 v 3.6 h -10.8 z"
         class="cls-2" />
      <path
         style="fill:#ffffff"
         inkscape:connector-curvature="0"
         id="path41"
         d="m 218.63,208.24 q -0.56,1.95 -1.17,3.6 a 18,18 0 0 1 -1.18,2.6 5.54,5.54 0 0 1 -2.27,2.12 7.05,7.05 0 0 1 -3.33,0.78 q -0.41,0 -0.75,0 a 8.73,8.73 0 0 1 -0.9,-0.12 v -2.85 c 0.2,0 0.4,0.06 0.6,0.07 h 0.45 a 4.31,4.31 0 0 0 1.7,-0.3 2.94,2.94 0 0 0 1.22,-1.14 9.64,9.64 0 0 0 1.05,-2.3 c 0.33,-1 0.7,-2.25 1.1,-3.82 h -1.25 l -8.45,-23.35 h 3.6 l 3.6,10.4 1.85,5.2 0.85,2.57 c 0.27,0.82 0.57,1.7 0.9,2.63 h 0.1 q 0.65,-2.66 1.28,-5.23 c 0.41,-1.71 0.84,-3.44 1.27,-5.17 l 2.65,-10.4 h 3.65 z"
         class="cls-2" />
      <path
         style="fill:#ffffff"
         inkscape:connector-curvature="0"
         id="path43"
         d="m 232.23,183.54 -0.15,3 v 0 a 5.79,5.79 0 0 1 2.74,-2.58 12.69,12.69 0 0 1 4.94,-0.77 13.27,13.27 0 0 1 4.19,0.6 6.1,6.1 0 0 1 2.74,1.7 8,8 0 0 1 1.64,3.72 32.75,32.75 0 0 1 0.5,6.33 28.41,28.41 0 0 1 -0.45,5.52 8.75,8.75 0 0 1 -1.49,3.6 5.77,5.77 0 0 1 -2.77,2 12.89,12.89 0 0 1 -4.21,0.6 13.63,13.63 0 0 1 -4.91,-0.7 5.51,5.51 0 0 1 -2.72,-2.4 h -0.1 v 12.75 h -3.4 v -33.37 z m 6.6,2.55 a 12.24,12.24 0 0 0 -3,0.3 5,5 0 0 0 -1.88,0.85 q -1.69,1.5 -1.7,8.1 a 27.16,27.16 0 0 0 0.3,4.45 6.48,6.48 0 0 0 1,2.77 3.7,3.7 0 0 0 2.08,1.4 12.57,12.57 0 0 0 3.37,0.38 11,11 0 0 0 3.17,-0.38 3.53,3.53 0 0 0 1.93,-1.37 6.34,6.34 0 0 0 0.95,-2.73 31.8,31.8 0 0 0 0.25,-4.47 35.68,35.68 0 0 0 -0.25,-4.73 6.58,6.58 0 0 0 -1,-2.85 3.55,3.55 0 0 0 -2,-1.37 13.15,13.15 0 0 0 -3.22,-0.35 z"
         class="cls-2" />
      <path
         style="fill:#ffffff"
         inkscape:connector-curvature="0"
         id="path45"
         d="m 274.08,199.84 a 3.88,3.88 0 0 1 0.05,0.57 v 0.38 a 7.64,7.64 0 0 1 -0.52,3 4.51,4.51 0 0 1 -1.7,2 7.93,7.93 0 0 1 -3.11,1.1 28.45,28.45 0 0 1 -4.72,0.33 22.22,22.22 0 0 1 -5.17,-0.5 6,6 0 0 1 -3.2,-1.85 7.48,7.48 0 0 1 -1.6,-3.7 34.39,34.39 0 0 1 -0.43,-6.05 32.15,32.15 0 0 1 0.45,-5.93 7.74,7.74 0 0 1 1.62,-3.67 6.05,6.05 0 0 1 3.21,-1.85 22.51,22.51 0 0 1 5.22,-0.5 26.27,26.27 0 0 1 3.7,0.22 8.84,8.84 0 0 1 2.62,0.75 4.93,4.93 0 0 1 1.75,1.38 7.21,7.21 0 0 1 1.13,2.1 c 0.13,0.4 0.25,0.81 0.35,1.22 a 10.41,10.41 0 0 1 0.23,1.53 c 0,0.6 0.08,1.33 0.09,2.2 0.01,0.87 0,1.95 0,3.25 h -16.8 a 31,31 0 0 0 0.25,4.47 5.49,5.49 0 0 0 1,2.58 3.29,3.29 0 0 0 2,1.17 17.56,17.56 0 0 0 3.53,0.28 32.07,32.07 0 0 0 3.5,-0.15 4.5,4.5 0 0 0 2,-0.6 2,2 0 0 0 0.88,-1.35 11.74,11.74 0 0 0 0.2,-2.4 z m -3.5,-6.7 q 0,-1.2 0,-2 c 0,-0.51 0,-0.94 -0.07,-1.27 a 5,5 0 0 0 -0.15,-0.88 c -0.07,-0.25 -0.15,-0.5 -0.25,-0.77 a 2.92,2.92 0 0 0 -1.75,-1.83 11.77,11.77 0 0 0 -4.1,-0.52 18.76,18.76 0 0 0 -3.55,0.27 3.91,3.91 0 0 0 -2.1,1.08 4.25,4.25 0 0 0 -1,2.2 21.56,21.56 0 0 0 -0.25,3.7 z"
         class="cls-2" />
    </g>
  </g>
</svg>
