<svg id="Layer_1" data-name="Layer 1" xmlns="http://www.w3.org/2000/svg" xmlns:xlink="http://www.w3.org/1999/xlink" viewBox="0 0 500 500">
  <defs>
    <style>
      .cls-1 {
        fill: url(#linear-gradient);
      }

      .cls-2 {
        fill: #fff;
      }
    </style>
    <linearGradient id="linear-gradient" x1="171.01" y1="304.62" x2="140.39" y2="438.63" gradientTransform="translate(354.45 -75.53) rotate(63.54)" gradientUnits="userSpaceOnUse">
      <stop offset="0" stop-color="lime"/>
      <stop offset="0.07" stop-color="#06f321"/>
      <stop offset="0.2" stop-color="#0fe053"/>
      <stop offset="0.33" stop-color="#17d07f"/>
      <stop offset="0.47" stop-color="#1ec2a3"/>
      <stop offset="0.6" stop-color="#23b8bf"/>
      <stop offset="0.73" stop-color="#26b1d2"/>
      <stop offset="0.86" stop-color="#28acde"/>
      <stop offset="1" stop-color="#29abe2"/>
    </linearGradient>
  </defs>
  <title>sent</title>
  <path class="cls-1" d="M108.45,148.24l65.23,131.05a8.26,8.26,0,0,1-3.71,11h0a19.06,19.06,0,0,1-25.56-8.58l-15.9-31.94a7.43,7.43,0,0,0-10.08-3.28L42.05,284.09a6.69,6.69,0,0,1-8.86-9.16l7.17-13.43,60.48-113.3A4.26,4.26,0,0,1,108.45,148.24Z"/>
  <g>
    <path class="cls-2" d="M192.71,229.06l-.79,6.22.23.11a15.12,15.12,0,0,1,6-5.88,21.32,21.32,0,0,1,9.35-1.74q7.74,0,11.32,3.66t3.61,11.6v3.68l-7.82,0v-4.37c0-2.84-.7-4.87-2.08-6.09s-3.64-1.83-6.79-1.83a16.57,16.57,0,0,0-7.24,1.46,8.65,8.65,0,0,0-4.25,4.09,13.43,13.43,0,0,0-1.14,4.08,51.26,51.26,0,0,0-.33,6.5l.07,32.2-7.82,0-.11-53.71Z"/>
    <path class="cls-2" d="M277.42,266.38a7.71,7.71,0,0,1,.12,1.32v.86a17.63,17.63,0,0,1-1.19,7,10.22,10.22,0,0,1-3.9,4.61,18.51,18.51,0,0,1-7.12,2.55,67.5,67.5,0,0,1-10.87.77,51,51,0,0,1-11.91-1.13,13.79,13.79,0,0,1-7.36-4.24,17.38,17.38,0,0,1-3.7-8.5,80.42,80.42,0,0,1-1-13.91,74.1,74.1,0,0,1,1-13.63,17.69,17.69,0,0,1,3.72-8.46,13.76,13.76,0,0,1,7.35-4.27,51.11,51.11,0,0,1,12-1.18,59.91,59.91,0,0,1,8.52.5,20.59,20.59,0,0,1,6,1.71,11.49,11.49,0,0,1,4,3.16,17,17,0,0,1,2.6,4.82q.45,1.38.81,2.82a24.33,24.33,0,0,1,.52,3.5c.12,1.38.2,3.07.24,5.06s.07,4.49.08,7.48l-38.65.08a72.83,72.83,0,0,0,.6,10.29,12.6,12.6,0,0,0,2.2,5.92,7.54,7.54,0,0,0,4.66,2.69,41.82,41.82,0,0,0,8.11.62,75.71,75.71,0,0,0,8-.36,10.54,10.54,0,0,0,4.54-1.39,4.87,4.87,0,0,0,2-3.11,26.43,26.43,0,0,0,.44-5.52ZM269.34,251c0-1.84,0-3.36-.06-4.55s-.11-2.16-.18-2.93a13.63,13.63,0,0,0-.35-2c-.16-.58-.35-1.17-.58-1.78a6.74,6.74,0,0,0-4-4.19q-3-1.2-9.43-1.19a42.33,42.33,0,0,0-8.16.65,8.86,8.86,0,0,0-4.83,2.48,9.78,9.78,0,0,0-2.29,5.07,50.07,50.07,0,0,0-.55,8.51Z"/>
    <path class="cls-2" d="M297.13,228.85l-.1,7.36.11.11a13.64,13.64,0,0,1,2.76-4.2,12.26,12.26,0,0,1,4.49-2.48A30.74,30.74,0,0,1,315.12,228q13.38,0,17.55,6.86a12.22,12.22,0,0,1,1.45,4.42,62,62,0,0,1,.42,8.23l.07,35h-7.82l-.07-34.27c0-1.45,0-2.66-.06-3.62s-.11-1.78-.18-2.47a7.31,7.31,0,0,0-.41-1.78c-.19-.5-.41-1-.64-1.56a6,6,0,0,0-3.7-3.21,24.81,24.81,0,0,0-7.74-.9q-9,0-12.75,3.59t-3.73,12l.07,32.31-8.05,0-.11-53.71Z"/>
    <path class="cls-2" d="M348.1,243.92a31.28,31.28,0,0,1,1-7.95,9,9,0,0,1,3.33-4.88,15.36,15.36,0,0,1,6.49-2.47,64.64,64.64,0,0,1,10.52-.73,52.26,52.26,0,0,1,10.81.9,15.57,15.57,0,0,1,6.85,3.09,11.52,11.52,0,0,1,3.63,5.86,34.46,34.46,0,0,1,1.06,9.2l.07,35.42h-7.82l.57-5.75-.12-.11a13.73,13.73,0,0,1-2.81,3.22,12,12,0,0,1-3.68,2,23.49,23.49,0,0,1-5,1.11,57.64,57.64,0,0,1-6.78.35,44.81,44.81,0,0,1-9.49-.83,15.48,15.48,0,0,1-6.27-2.74,10.21,10.21,0,0,1-3.46-5,24.26,24.26,0,0,1-1-7.62,25.38,25.38,0,0,1,1.3-8.48,10.57,10.57,0,0,1,3.61-5.39q4.49-3.23,15.64-3.25,8.63,0,13.57,1.9a7.2,7.2,0,0,1,2.13,1.23,8.06,8.06,0,0,1,1.56,2.26l.23-.12,0-6.4a43.58,43.58,0,0,0-.53-7.5,8.1,8.1,0,0,0-2.08-4.46,8.33,8.33,0,0,0-4.26-2.11,36.35,36.35,0,0,0-7.19-.56,47.58,47.58,0,0,0-6.72.42,12.25,12.25,0,0,0-4.31,1.33,5.29,5.29,0,0,0-2.3,2.48,9.48,9.48,0,0,0-.68,3.85v1.73Zm21,12.15a59.9,59.9,0,0,0-7.68.42,11.44,11.44,0,0,0-4.56,1.44,5.49,5.49,0,0,0-2.24,2.88,15,15,0,0,0-.63,4.84,21.54,21.54,0,0,0,.59,5.46,6.22,6.22,0,0,0,2.09,3.33,9.06,9.06,0,0,0,4.15,1.66,41.33,41.33,0,0,0,6.82.44q10.72,0,14.42-3.13c1.54-1.23,2.3-3.49,2.3-6.79a14.8,14.8,0,0,0-.77-5.12,6.61,6.61,0,0,0-2.49-3.21,11.5,11.5,0,0,0-4.67-1.72A43.17,43.17,0,0,0,369.12,256.07Z"/>
  </g>
  <g>
    <path class="cls-2" d="M198.53,206.89h-3.75v-29.8H183.93v-3.55h25.4v3.6l-10.8,0Z"/>
    <path class="cls-2" d="M218.63,208.24q-.56,1.95-1.17,3.6a18,18,0,0,1-1.18,2.6,5.54,5.54,0,0,1-2.27,2.12,7.05,7.05,0,0,1-3.33.78q-.41,0-.75,0a8.73,8.73,0,0,1-.9-.12v-2.85c.2,0,.4.06.6.07l.45,0a4.31,4.31,0,0,0,1.7-.3A2.94,2.94,0,0,0,213,213a9.64,9.64,0,0,0,1.05-2.3c.33-1,.7-2.25,1.1-3.82h-1.25l-8.45-23.35h3.6l3.6,10.4,1.85,5.2.85,2.57c.27.82.57,1.7.9,2.63h.1q.65-2.66,1.28-5.23c.41-1.71.84-3.44,1.27-5.17l2.65-10.4h3.65Z"/>
    <path class="cls-2" d="M232.23,183.54l-.15,3,0,0a5.79,5.79,0,0,1,2.74-2.58,12.69,12.69,0,0,1,4.94-.77,13.27,13.27,0,0,1,4.19.6,6.1,6.1,0,0,1,2.74,1.7,8,8,0,0,1,1.64,3.72,32.75,32.75,0,0,1,.5,6.33,28.41,28.41,0,0,1-.45,5.52,8.75,8.75,0,0,1-1.49,3.6,5.77,5.77,0,0,1-2.77,2,12.89,12.89,0,0,1-4.21.6,13.63,13.63,0,0,1-4.91-.7,5.51,5.51,0,0,1-2.72-2.4h-.1v12.75h-3.4V183.54Zm6.6,2.55a12.24,12.24,0,0,0-3,.3,5,5,0,0,0-1.88.85q-1.69,1.5-1.7,8.1a27.16,27.16,0,0,0,.3,4.45,6.48,6.48,0,0,0,1,2.77,3.7,3.7,0,0,0,2.08,1.4,12.57,12.57,0,0,0,3.37.38,11,11,0,0,0,3.17-.38,3.53,3.53,0,0,0,1.93-1.37,6.34,6.34,0,0,0,.95-2.73,31.8,31.8,0,0,0,.25-4.47,35.68,35.68,0,0,0-.25-4.73,6.58,6.58,0,0,0-1-2.85,3.55,3.55,0,0,0-2-1.37A13.15,13.15,0,0,0,238.83,186.09Z"/>
    <path class="cls-2" d="M274.08,199.84a3.88,3.88,0,0,1,.05.57v.38a7.64,7.64,0,0,1-.52,3,4.51,4.51,0,0,1-1.7,2,7.93,7.93,0,0,1-3.11,1.1,28.45,28.45,0,0,1-4.72.33,22.22,22.22,0,0,1-5.17-.5,6,6,0,0,1-3.2-1.85,7.48,7.48,0,0,1-1.6-3.7,34.39,34.39,0,0,1-.43-6.05,32.15,32.15,0,0,1,.45-5.93,7.74,7.74,0,0,1,1.62-3.67,6.05,6.05,0,0,1,3.21-1.85,22.51,22.51,0,0,1,5.22-.5,26.27,26.27,0,0,1,3.7.22,8.84,8.84,0,0,1,2.62.75,4.93,4.93,0,0,1,1.75,1.38,7.21,7.21,0,0,1,1.13,2.1c.13.4.25.81.35,1.22a10.41,10.41,0,0,1,.23,1.53c0,.6.08,1.33.09,2.2s0,1.95,0,3.25h-16.8a31,31,0,0,0,.25,4.47,5.49,5.49,0,0,0,1,2.58,3.29,3.29,0,0,0,2,1.17,17.56,17.56,0,0,0,3.53.28,32.07,32.07,0,0,0,3.5-.15,4.5,4.5,0,0,0,2-.6,2,2,0,0,0,.88-1.35,11.74,11.74,0,0,0,.2-2.4Zm-3.5-6.7q0-1.2,0-2c0-.51,0-.94-.07-1.27a5,5,0,0,0-.15-.88c-.07-.25-.15-.5-.25-.77a2.92,2.92,0,0,0-1.75-1.83,11.77,11.77,0,0,0-4.1-.52,18.76,18.76,0,0,0-3.55.27,3.91,3.91,0,0,0-2.1,1.08,4.25,4.25,0,0,0-1,2.2,21.56,21.56,0,0,0-.25,3.7Z"/>
  </g>
</svg>
