<svg xmlns="http://www.w3.org/2000/svg" width="146.04" height="34" viewBox="0 0 146.04 34"><g transform="translate(-86.98 1170)" fill="#292624"><path d="M 231.9283905029297 -1136.499877929688 L 88.07194519042969 -1136.499877929688 C 92.30951690673828 -1141.356079101563 97.02503967285156 -1145.7958984375 102.1010208129883 -1149.707397460938 C 107.5036010742188 -1153.870239257813 113.3418350219727 -1157.455200195313 119.4535140991211 -1160.362548828125 C 125.6769866943359 -1163.323120117188 132.2260589599609 -1165.600219726563 138.9188079833984 -1167.13037109375 C 145.7964324951172 -1168.702758789063 152.8892364501953 -1169.5 160.0001983642578 -1169.5 C 167.1111450195313 -1169.5 174.2039794921875 -1168.702758789063 181.0816345214844 -1167.13037109375 C 187.7743835449219 -1165.600219726563 194.3234405517578 -1163.323120117188 200.546875 -1160.362548828125 C 206.6585693359375 -1157.455200195313 212.4967803955078 -1153.870239257813 217.8993835449219 -1149.707397460938 C 222.975341796875 -1145.7958984375 227.6906433105469 -1141.356323242188 231.9283905029297 -1136.499877929688 Z" stroke="none"/><path d="M 230.8202056884766 -1136.999877929688 C 226.7951202392578 -1141.5087890625 222.3541717529297 -1145.643310546875 217.5942077636719 -1149.311279296875 C 212.2196197509766 -1153.45263671875 206.4118194580078 -1157.018920898438 200.3321075439453 -1159.911010742188 C 194.1416778564453 -1162.85595703125 187.6273956298828 -1165.120849609375 180.9701995849609 -1166.642944335938 C 174.1289825439453 -1168.20703125 167.0736389160156 -1169 160.0001983642578 -1169 C 152.9267272949219 -1169 145.8713989257813 -1168.20703125 139.0302429199219 -1166.642944335938 C 132.3730163574219 -1165.120849609375 125.8587265014648 -1162.85595703125 119.6683044433594 -1159.911010742188 C 113.588623046875 -1157.018920898438 107.7808227539063 -1153.45263671875 102.4062042236328 -1149.311279296875 C 97.64630126953125 -1145.643432617188 93.20504760742188 -1141.508544921875 89.18011474609375 -1136.999877929688 L 230.8202056884766 -1136.999877929688 M 233.0203094482422 -1135.999877929688 L 233.020263671875 -1135.999877929688 L 233.0181274414063 -1135.999877929688 L 233.020263671875 -1135.999877929688 L 233.0203094482422 -1135.999877929688 Z M 233.0203094482422 -1135.999877929688 L 86.98007965087891 -1135.999877929688 C 91.42366027832031 -1141.207641601563 96.40864562988281 -1145.9521484375 101.7958221435547 -1150.103393554688 C 107.2263259887695 -1154.287841796875 113.0949401855469 -1157.891479492188 119.2387237548828 -1160.814086914063 C 125.4952621459961 -1163.790405273438 132.0791015625 -1166.079467773438 138.8073577880859 -1167.617797851563 C 145.7214050292969 -1169.198486328125 152.8516845703125 -1170 160.0001983642578 -1170 C 167.1486968994141 -1170 174.2789764404297 -1169.198486328125 181.1930694580078 -1167.617797851563 C 187.9213409423828 -1166.079467773438 194.5051574707031 -1163.790405273438 200.7616882324219 -1160.814086914063 C 206.9054412841797 -1157.891479492188 212.7740783691406 -1154.287841796875 218.2045593261719 -1150.103393554688 C 223.5931243896484 -1145.951049804688 228.5773773193359 -1141.20654296875 233.0188903808594 -1136.00146484375 L 233.020263671875 -1135.999877929688 Z" stroke="none" fill="#292624"/></g></svg>