<svg id="Layer_1" data-name="Layer 1" xmlns="http://www.w3.org/2000/svg" viewBox="0 0 170.91 227.2"><defs><style>.cls-1,.cls-3{font-size:180px;font-family:HarlowSolid, Harlow Solid Italic;}.cls-1{fill:lime;}.cls-2,.cls-4{fill:#fff;}.cls-2{stroke:#fff;stroke-miterlimit:10;}.cls-3{fill:#0071bc;}</style></defs><title>Untitled-1</title><text class="cls-1" transform="translate(1.26 150.57)">T</text><polygon id="_rectangel_button_" data-name="&lt;rectangel button&gt;" class="cls-2" points="97.33 82.4 81.11 122.42 89.22 122.42 103.74 82.4 97.33 82.4"/><text class="cls-3" transform="translate(5.31 157.33)">T</text><path class="cls-4" d="M96.41,124.43q34.46,1,68.92.22c1.92-.05,1.93-3.05,0-3q-34.47.81-68.92-.22c-1.93-.06-1.93,2.94,0,3Z" transform="translate(-20.36 1.39)"/><path class="cls-4" d="M82.46,90.81A2,2,0,0,1,84,87.66l21-1h0c2.67,3.14,1.74,9.26-1.54,10.19l-4.72,1.33c-5.84,1.65-12-1.13-16.32-7.38Z" transform="translate(-20.36 1.39)"/><g id="brush_storke_" data-name="brush storke&gt;"><path class="cls-4" d="M111.61,81.27a622.77,622.77,0,0,1,65.22,2.55c1.92.18,1.91-2.82,0-3a622.77,622.77,0,0,0-65.22-2.55c-1.93,0-1.93,3,0,3Z" transform="translate(-20.36 1.39)"/></g></svg>